{"glyphs":{"0":{"ha":953,"x_min":32,"x_max":921,"o":"m 476 1089 q 801 928 694 1088 q 919 576 907 768 q 920 549 919 563 q 921 522 921 536 q 920 495 921 508 q 919 468 919 482 q 801 117 907 276 q 476 -42 696 -42 q 151 117 257 -42 q 33 468 46 276 q 33 495 33 482 q 32 522 32 508 q 33 549 32 536 q 33 576 33 563 q 152 928 46 768 q 476 1088 258 1088 l 476 1089 m 476 849 q 372 789 408 847 q 318 661 335 731 q 306 586 310 622 q 303 524 303 550 q 306 460 303 497 q 318 385 310 424 q 372 256 335 314 q 476 197 408 197 q 581 256 544 197 q 635 385 618 314 q 647 460 643 424 q 650 524 650 497 q 647 586 650 550 q 635 661 643 622 q 581 789 618 731 q 476 847 544 847 l 476 849 z "},"1":{"ha":953,"x_min":224,"x_max":646,"o":"m 374 817 l 224 817 l 224 1047 l 646 1047 l 646 0 l 374 0 l 374 817 l 374 817 z "},"2":{"ha":953,"x_min":46,"x_max":888,"o":"m 544 231 l 888 231 l 888 0 l 46 0 l 474 465 q 556 581 519 514 q 593 721 593 649 q 593 724 593 722 q 593 729 593 726 q 558 817 590 776 q 474 857 526 857 q 389 819 418 857 q 360 729 360 782 q 361 708 360 719 q 364 685 363 696 l 64 686 q 179 976 71 865 q 472 1088 288 1088 q 757 987 638 1088 q 876 715 876 886 q 843 550 876 618 q 747 419 810 482 q 728 400 738 410 q 707 381 718 390 l 544 231 l 544 231 z "},"3":{"ha":953,"x_min":47,"x_max":886,"o":"m 354 746 l 101 746 q 142 890 110 826 q 224 997 174 953 q 342 1065 274 1042 q 490 1088 410 1088 q 728 1009 631 1088 q 825 783 825 931 q 825 769 825 776 q 824 756 825 763 q 793 649 819 700 q 715 568 767 597 q 826 490 785 550 q 881 361 868 431 q 885 333 883 347 q 886 304 886 318 q 761 45 886 132 q 479 -42 636 -42 q 310 -15 390 -42 q 167 75 231 11 q 103 159 133 110 q 58 260 74 208 q 50 297 53 279 q 47 333 47 315 q 47 334 47 333 q 47 336 47 335 q 47 338 47 338 q 47 339 47 339 l 325 340 q 366 233 325 276 q 471 190 407 190 q 575 228 533 190 q 617 331 617 267 q 573 431 617 390 q 472 471 529 471 q 448 468 460 471 q 425 463 436 465 l 425 646 l 453 646 q 539 675 506 644 q 572 760 572 706 q 542 837 572 808 q 465 865 511 865 q 384 831 414 865 q 354 747 354 797 q 354 747 354 747 q 354 746 354 746 q 354 745 354 746 q 354 744 354 744 l 354 746 z "},"4":{"ha":953,"x_min":22,"x_max":910,"o":"m 783 425 l 910 425 l 910 217 l 783 217 l 783 0 l 531 0 l 531 217 l 22 217 l 22 390 l 426 1047 l 783 1047 l 783 425 l 783 425 m 531 425 l 531 828 l 528 828 l 283 425 l 531 425 l 531 425 z "},"5":{"ha":957,"x_min":79,"x_max":861,"o":"m 785 817 l 422 817 l 404 697 l 490 704 q 505 704 497 704 q 518 704 513 704 q 765 594 668 704 q 861 328 861 483 q 826 172 861 246 q 726 44 792 97 q 626 -10 682 8 q 513 -36 571 -29 q 466 -40 489 -39 q 421 -42 443 -42 q 409 -42 415 -42 q 397 -42 403 -42 q 232 -17 314 -39 q 79 51 150 6 l 119 310 q 256 221 181 254 q 411 188 331 188 q 527 231 476 188 q 578 342 578 274 q 516 470 578 428 q 379 519 454 513 q 364 520 372 519 q 349 521 356 521 q 247 510 297 521 q 149 478 196 500 l 240 1047 l 785 1047 l 785 817 l 785 817 z "},"6":{"ha":953,"x_min":32,"x_max":921,"o":"m 425 1047 l 733 1047 l 436 693 l 439 690 q 455 696 447 693 q 469 701 463 699 q 525 716 497 711 q 585 721 553 721 q 830 609 739 721 q 921 353 921 497 q 785 59 921 160 q 471 -42 650 -42 q 425 -40 449 -42 q 378 -35 401 -37 q 269 -6 322 -25 q 172 47 215 14 q 74 172 113 97 q 32 324 35 246 q 32 329 32 326 q 32 335 32 332 q 82 556 32 449 q 200 751 132 663 l 425 1047 l 425 1047 m 469 172 q 590 222 542 171 q 638 344 638 272 q 590 465 638 415 q 469 515 542 515 q 348 465 399 515 q 297 344 297 415 q 348 222 297 272 q 469 171 399 171 l 469 172 z "},"7":{"ha":953,"x_min":58,"x_max":958,"o":"m 536 817 l 99 817 l 99 1047 l 958 1047 l 357 0 l 58 0 l 536 817 l 536 817 z "},"8":{"ha":953,"x_min":76,"x_max":876,"o":"m 476 1089 q 722 1013 611 1088 q 833 789 833 939 q 787 640 833 706 q 668 551 740 575 l 668 550 q 819 447 763 518 q 876 274 876 376 q 777 60 876 136 q 560 -35 678 -15 q 518 -40 539 -39 q 476 -42 497 -42 q 435 -40 456 -42 q 393 -35 414 -39 q 176 60 275 -15 q 76 274 76 136 q 134 447 76 376 q 285 549 192 518 l 285 553 q 166 640 213 575 q 119 789 119 706 q 231 1013 119 939 q 476 1088 342 1088 l 476 1089 m 476 440 q 388 401 425 439 q 351 308 351 363 q 388 218 351 256 q 476 181 425 181 q 565 218 529 181 q 601 308 601 256 q 565 401 601 363 q 476 439 529 439 l 476 440 m 476 900 q 395 864 429 899 q 361 781 361 829 q 395 697 361 732 q 476 663 429 663 q 558 697 525 663 q 592 781 592 732 q 558 864 592 829 q 476 899 525 899 l 476 900 z "},"9":{"ha":953,"x_min":32,"x_max":921,"o":"m 529 0 l 219 0 l 518 353 l 515 356 q 501 349 508 351 q 488 343 494 346 q 431 328 460 333 q 368 322 401 322 q 123 435 214 322 q 32 692 32 547 q 167 986 32 885 q 482 1088 303 1088 q 528 1086 504 1088 q 575 1081 551 1085 q 684 1052 631 1072 q 781 997 738 1032 q 880 873 842 947 q 921 718 918 799 q 921 714 921 717 q 921 708 921 711 q 871 488 921 594 q 753 292 821 382 l 529 0 l 529 0 m 483 874 q 363 822 411 872 q 315 700 315 772 q 363 578 315 628 q 483 528 411 528 q 606 578 556 528 q 657 700 657 628 q 606 822 657 772 q 483 872 556 872 l 483 874 z "}," ":{"ha":476,"x_min":0,"x_max":0,"o":""},"!":{"ha":533,"x_min":104,"x_max":429,"o":"m 267 297 q 382 249 335 296 q 429 133 429 201 q 382 19 429 67 q 267 -28 335 -28 q 151 19 199 -28 q 104 133 104 67 q 151 249 104 201 q 267 296 199 296 l 267 297 m 136 356 l 136 1047 l 399 1047 l 399 356 l 136 356 l 136 356 z "},"\"":{"ha":694,"x_min":65,"x_max":629,"o":"m 65 1047 l 301 1047 l 264 588 l 103 588 l 65 1047 l 65 1047 m 393 1047 l 629 1047 l 592 588 l 431 588 l 393 1047 l 393 1047 z "},"#":{"ha":953,"x_min":94,"x_max":858,"o":"m 368 1008 l 515 1008 l 461 726 l 601 726 l 656 1008 l 801 1008 l 747 726 l 858 726 l 858 569 l 722 569 l 689 397 l 819 397 l 819 240 l 656 240 l 610 0 l 463 0 l 508 240 l 368 240 l 322 0 l 175 0 l 221 240 l 94 240 l 94 397 l 251 397 l 285 569 l 151 569 l 151 726 l 314 726 l 368 1008 l 368 1008 m 432 569 l 399 397 l 540 397 l 576 569 l 432 569 l 432 569 z "},"$":{"ha":953,"x_min":94,"x_max":858,"o":"m 94 121 l 208 331 q 297 264 246 294 q 400 219 347 233 q 431 215 415 217 q 460 213 446 213 q 474 213 467 213 q 489 215 482 214 q 558 247 526 222 q 590 314 590 271 q 554 376 590 356 q 465 415 518 397 q 419 430 443 422 q 372 446 396 438 q 370 447 371 446 q 368 447 369 447 q 221 535 288 478 q 154 718 154 593 q 233 939 154 842 q 438 1044 311 1036 l 438 1214 l 567 1214 l 567 1046 q 587 1042 576 1043 q 607 1039 597 1042 q 717 1013 663 1031 q 819 964 772 994 l 717 764 q 633 812 679 793 q 539 831 588 831 q 457 813 493 831 q 421 753 421 794 q 447 699 421 719 q 504 664 474 678 q 532 653 518 658 q 557 644 546 649 q 767 545 676 606 q 858 340 858 485 q 781 115 858 194 q 567 1 703 35 l 567 -171 l 438 -171 l 438 -6 q 347 3 392 -6 q 258 28 303 11 q 250 31 254 29 q 243 33 246 32 q 165 70 203 50 q 94 119 126 90 l 94 121 z "},"%":{"ha":1354,"x_min":26,"x_max":1328,"o":"m 1042 499 q 1243 433 1158 497 q 1328 243 1328 368 q 1244 51 1328 117 q 1042 -14 1161 -14 q 839 51 922 -14 q 756 243 756 117 q 840 433 756 368 q 1042 497 925 497 l 1042 499 m 1042 360 q 958 324 993 358 q 924 240 924 289 q 958 158 924 192 q 1042 124 993 124 q 1125 158 1090 124 q 1160 240 1160 192 q 1125 324 1160 289 q 1042 358 1090 358 l 1042 360 m 913 1047 l 1049 1047 l 440 0 l 304 0 l 913 1047 l 913 1047 m 313 1061 q 514 995 429 1060 q 599 806 599 931 q 515 613 599 679 q 313 547 432 547 q 110 613 193 547 q 26 806 26 679 q 111 995 26 931 q 313 1060 196 1060 l 313 1061 m 313 922 q 229 886 264 921 q 194 803 194 851 q 229 720 194 754 q 313 686 264 686 q 396 720 361 686 q 431 803 431 754 q 396 886 431 851 q 313 921 361 921 l 313 922 z "},"&":{"ha":1178,"x_min":53,"x_max":1178,"o":"m 838 0 l 747 97 q 587 11 674 46 q 410 -28 500 -24 q 399 -28 404 -28 q 389 -28 394 -28 q 153 50 254 -28 q 53 271 53 128 q 116 454 53 389 q 278 563 179 519 l 303 575 l 281 606 q 272 616 276 610 q 264 628 268 622 q 224 695 242 658 q 206 786 206 732 q 305 998 206 922 q 531 1074 404 1074 q 757 999 656 1074 q 858 789 858 924 q 802 635 858 692 q 664 538 746 578 l 796 400 q 869 469 835 433 q 933 547 904 506 l 1088 401 l 956 260 l 943 247 l 1178 0 l 838 0 l 838 0 m 599 260 l 433 438 q 423 430 428 433 q 413 422 418 426 q 359 376 383 403 q 335 311 335 349 q 367 245 335 269 q 436 217 399 221 q 444 215 440 215 q 453 215 449 215 q 529 228 492 215 q 599 258 567 240 l 599 260 m 546 665 q 549 666 547 665 q 553 668 551 667 q 615 720 588 689 q 643 792 643 751 q 618 860 643 832 q 551 889 593 889 q 490 865 515 889 q 464 803 464 842 q 481 745 464 774 q 521 693 499 717 q 533 678 526 685 q 546 664 540 671 l 546 665 z "},"'":{"ha":347,"x_min":56,"x_max":292,"o":"m 56 1047 l 292 1047 l 254 588 l 93 588 l 56 1047 l 56 1047 z "},"(":{"ha":489,"x_min":68,"x_max":421,"o":"m 269 1097 l 421 1011 q 324 796 360 911 q 272 563 288 681 q 264 469 267 515 q 261 379 261 424 q 267 253 261 319 q 286 119 274 188 q 338 -76 304 19 q 421 -247 371 -172 l 269 -333 q 159 -128 201 -244 q 94 107 117 -12 q 74 256 81 182 q 68 396 68 329 q 74 524 68 458 q 94 658 81 590 q 160 892 117 778 q 269 1096 204 1006 l 269 1097 z "},")":{"ha":489,"x_min":68,"x_max":421,"o":"m 68 1011 l 219 1097 q 328 892 285 1006 q 394 658 372 778 q 415 524 408 590 q 421 396 421 458 q 415 256 421 329 q 394 107 408 182 q 330 -128 372 -12 q 219 -333 288 -244 l 68 -247 q 151 -76 118 -172 q 203 119 185 19 q 222 253 215 188 q 228 379 228 319 q 225 469 228 424 q 217 563 222 515 q 165 796 201 681 q 68 1010 129 911 l 68 1011 z "},"*":{"ha":671,"x_min":94,"x_max":576,"o":"m 272 1047 l 397 1047 l 390 899 l 514 976 l 576 871 l 444 801 l 575 729 l 513 625 l 390 704 l 396 564 l 271 564 l 279 703 l 161 628 l 99 733 l 224 803 l 94 874 l 158 979 l 279 903 l 272 1047 l 272 1047 z "},"+":{"ha":953,"x_min":121,"x_max":832,"o":"m 372 461 l 372 713 l 581 713 l 581 461 l 832 461 l 832 253 l 581 253 l 581 0 l 372 0 l 372 253 l 121 253 l 121 461 l 372 461 l 372 461 z "},",":{"ha":476,"x_min":31,"x_max":449,"o":"m 211 265 l 449 265 l 193 -196 l 31 -196 l 211 265 l 211 265 z "},"-":{"ha":544,"x_min":74,"x_max":471,"o":"m 74 550 l 471 550 l 471 342 l 74 342 l 74 550 l 74 550 z "},".":{"ha":476,"x_min":76,"x_max":401,"o":"m 239 297 q 354 249 307 296 q 401 133 401 201 q 354 19 401 67 q 239 -28 307 -28 q 124 19 171 -28 q 76 133 76 67 q 124 249 76 201 q 239 296 171 296 l 239 297 z "},"/":{"ha":804,"x_min":38,"x_max":767,"o":"m 568 1153 l 767 1153 l 236 -129 l 38 -129 l 568 1153 l 568 1153 z "},":":{"ha":476,"x_min":76,"x_max":401,"o":"m 239 297 q 354 249 307 296 q 401 133 401 201 q 354 19 401 67 q 239 -28 307 -28 q 124 19 171 -28 q 76 133 76 67 q 124 249 76 201 q 239 296 171 296 l 239 297 m 239 765 q 354 717 307 764 q 401 601 401 669 q 354 487 401 535 q 239 439 307 439 q 124 487 171 439 q 76 601 76 535 q 124 717 76 669 q 239 764 171 764 l 239 765 z "},";":{"ha":476,"x_min":11,"x_max":465,"o":"m 192 265 l 429 265 l 174 -196 l 11 -196 l 192 265 l 192 265 m 303 765 q 418 717 371 764 q 465 601 465 669 q 418 487 465 535 q 303 439 371 439 q 188 487 235 439 q 140 601 140 535 q 188 717 140 669 q 303 764 235 764 l 303 765 z "},"<":{"ha":953,"x_min":138,"x_max":817,"o":"m 138 274 l 138 440 l 817 693 l 817 485 l 436 358 l 436 356 l 817 229 l 817 21 l 138 274 l 138 274 z "},"=":{"ha":953,"x_min":121,"x_max":832,"o":"m 121 294 l 832 294 l 832 86 l 121 86 l 121 294 l 121 294 m 121 628 l 832 628 l 832 419 l 121 419 l 121 628 l 121 628 z "},">":{"ha":953,"x_min":138,"x_max":817,"o":"m 817 440 l 817 274 l 138 21 l 138 229 l 518 356 l 518 358 l 138 485 l 138 693 l 817 440 l 817 440 z "},"?":{"ha":826,"x_min":21,"x_max":764,"o":"m 390 297 q 506 249 458 296 q 553 133 553 201 q 506 19 553 67 q 390 -28 458 -28 q 275 19 322 -28 q 228 133 228 67 q 275 249 228 201 q 390 296 322 296 l 390 297 m 258 350 l 258 619 q 288 613 274 615 q 317 611 303 611 q 338 612 326 611 q 358 615 349 613 q 453 658 410 625 q 496 749 496 692 q 467 822 496 792 q 394 853 439 853 q 322 822 347 853 q 297 747 297 792 l 21 749 q 138 990 22 906 q 401 1074 254 1074 q 530 1053 467 1074 q 644 988 593 1032 q 731 881 697 944 q 764 747 764 817 q 692 555 764 629 q 513 447 619 481 l 513 350 l 258 350 l 258 350 z "},"@":{"ha":1028,"x_min":7,"x_max":1019,"o":"m 822 792 l 753 431 q 752 424 753 426 q 750 418 751 421 q 748 406 749 413 q 746 394 747 400 q 744 381 744 388 q 743 368 743 375 q 748 346 743 354 q 765 338 753 338 q 767 338 767 338 q 769 338 768 338 q 792 347 781 339 q 818 367 804 354 q 875 457 849 399 q 906 579 901 515 q 906 592 906 586 q 906 604 906 599 q 797 856 906 768 q 533 943 688 943 q 248 824 358 943 q 138 522 138 704 q 258 215 138 329 q 557 101 379 101 q 708 119 643 101 q 806 157 772 136 l 919 67 q 752 0 847 28 q 546 -28 657 -28 q 165 128 322 -28 q 7 522 7 283 q 161 916 7 758 q 538 1074 315 1074 q 713 1044 629 1074 q 864 953 796 1015 q 977 808 935 890 q 1019 628 1019 726 q 997 465 1019 542 q 933 332 975 388 q 881 274 908 299 q 825 236 853 250 q 775 216 800 222 q 726 210 750 210 q 724 210 725 210 q 724 210 724 210 q 722 210 722 210 q 719 210 721 210 q 666 234 690 211 q 633 290 642 257 q 563 235 607 260 q 456 210 518 210 q 293 285 364 210 q 222 468 222 361 q 299 699 222 596 q 506 803 376 803 q 602 782 558 803 q 676 717 646 761 l 690 792 l 822 792 l 822 792 m 389 492 q 416 401 389 439 q 494 363 443 363 q 579 401 550 363 q 619 485 608 439 q 622 501 621 493 q 625 515 624 508 q 626 527 626 522 q 626 538 626 532 q 599 619 626 588 q 525 650 571 650 q 433 606 471 650 q 390 508 396 561 q 389 499 389 504 q 389 490 389 494 l 389 492 z "},"A":{"ha":1085,"x_min":-6,"x_max":1089,"o":"m 731 182 l 356 182 l 283 0 l -6 0 l 397 1047 l 694 1047 l 1089 0 l 799 0 l 731 182 l 731 182 m 657 390 l 546 724 l 543 724 l 431 390 l 657 390 l 657 390 z "},"B":{"ha":940,"x_min":89,"x_max":888,"o":"m 508 0 l 89 0 l 89 1047 l 478 1047 q 703 985 618 1046 q 789 774 789 924 q 763 647 789 703 q 674 560 738 592 l 674 558 q 837 472 786 543 q 888 290 888 400 q 770 63 888 126 q 508 0 653 0 l 508 0 m 361 433 l 361 208 l 396 208 q 399 207 397 207 q 404 207 401 207 q 439 207 421 207 q 475 208 457 207 q 569 235 526 213 q 613 318 613 257 q 565 410 613 389 q 463 432 518 431 q 437 432 450 432 q 411 432 424 432 q 400 432 406 432 q 389 432 394 432 l 361 433 l 361 433 m 361 839 l 361 636 l 392 636 q 395 635 393 635 q 400 635 397 635 q 495 654 451 636 q 539 736 539 672 q 497 818 539 800 q 407 838 456 836 q 394 838 400 838 q 381 838 388 838 l 361 839 l 361 839 z "},"C":{"ha":917,"x_min":36,"x_max":838,"o":"m 838 1022 l 838 696 q 732 781 796 751 q 599 810 668 810 q 397 726 474 810 q 319 519 319 642 q 398 315 319 396 q 603 235 476 235 q 732 265 669 235 q 838 346 794 294 l 838 21 q 767 -1 800 8 q 701 -17 733 -10 q 651 -25 676 -22 q 597 -28 625 -28 q 387 12 488 -28 q 204 125 286 51 q 77 303 118 203 q 36 521 36 404 q 76 728 36 628 q 190 904 115 828 q 367 1026 265 981 q 576 1074 468 1071 q 583 1074 579 1074 q 589 1074 586 1074 q 716 1060 654 1074 q 838 1021 778 1046 l 838 1022 z "},"D":{"ha":1044,"x_min":89,"x_max":1007,"o":"m 89 0 l 89 1047 l 475 1047 q 851 894 694 1046 q 1007 522 1007 743 q 850 151 1007 301 q 475 0 693 0 l 89 0 l 89 0 m 361 817 l 361 231 l 422 231 q 634 299 544 229 q 724 522 724 369 q 640 739 724 663 q 425 815 557 815 l 361 817 l 361 817 z "},"E":{"ha":764,"x_min":89,"x_max":685,"o":"m 685 817 l 361 817 l 361 642 l 668 642 l 668 411 l 361 411 l 361 231 l 685 231 l 685 0 l 89 0 l 89 1047 l 685 1047 l 685 817 l 685 817 z "},"F":{"ha":753,"x_min":89,"x_max":690,"o":"m 690 817 l 361 817 l 361 642 l 660 642 l 660 411 l 361 411 l 361 0 l 89 0 l 89 1047 l 690 1047 l 690 817 l 690 817 z "},"G":{"ha":1169,"x_min":36,"x_max":1133,"o":"m 593 585 l 1133 585 q 1114 369 1132 469 q 1026 169 1096 268 q 838 14 950 63 q 594 -35 726 -35 q 192 117 347 -35 q 36 517 36 269 q 194 926 36 772 q 604 1081 351 1081 q 887 1008 765 1081 q 1076 788 1008 935 l 818 681 q 732 800 790 754 q 592 846 674 846 q 397 751 465 846 q 321 544 328 657 q 319 530 319 538 q 319 515 319 522 q 319 512 319 514 q 319 507 319 510 q 393 288 322 388 q 596 188 464 188 q 746 233 685 188 q 815 369 807 279 l 593 371 l 593 585 l 593 585 z "},"H":{"ha":1115,"x_min":89,"x_max":1026,"o":"m 361 643 l 754 643 l 754 1047 l 1026 1047 l 1026 0 l 754 0 l 754 429 l 361 429 l 361 0 l 89 0 l 89 1047 l 361 1047 l 361 643 l 361 643 z "},"I":{"ha":450,"x_min":89,"x_max":361,"o":"m 361 1047 l 361 0 l 89 0 l 89 1047 l 361 1047 l 361 1047 z "},"J":{"ha":679,"x_min":-19,"x_max":596,"o":"m 324 1047 l 596 1047 l 596 340 q 509 73 596 174 q 249 -28 422 -28 q 94 13 161 -28 q -19 125 26 53 l 136 292 q 141 284 139 288 q 146 276 143 281 q 175 244 160 260 q 206 217 190 228 q 226 206 215 210 q 246 201 236 201 q 304 233 289 201 q 322 300 319 264 q 324 326 324 314 q 324 350 324 339 q 324 353 324 351 q 324 356 324 354 l 324 1047 l 324 1047 z "},"K":{"ha":1053,"x_min":89,"x_max":1068,"o":"m 364 615 l 693 1047 l 1031 1047 l 614 551 l 1068 0 l 715 0 l 364 454 l 361 454 l 361 0 l 89 0 l 89 1047 l 361 1047 l 361 615 l 364 615 l 364 615 z "},"L":{"ha":688,"x_min":89,"x_max":688,"o":"m 361 1047 l 361 231 l 688 231 l 688 0 l 89 0 l 89 1047 l 361 1047 l 361 1047 z "},"M":{"ha":1365,"x_min":26,"x_max":1339,"o":"m 26 0 l 204 1047 l 472 1047 l 685 488 l 910 1047 l 1181 1047 l 1339 0 l 1067 0 l 990 603 l 988 603 l 736 0 l 628 0 l 388 603 l 385 603 l 297 0 l 26 0 l 26 0 z "},"N":{"ha":1224,"x_min":89,"x_max":1135,"o":"m 89 0 l 89 1047 l 361 1047 l 860 407 l 863 407 l 863 1047 l 1135 1047 l 1135 0 l 863 0 l 364 642 l 361 642 l 361 0 l 89 0 l 89 0 z "},"O":{"ha":1232,"x_min":36,"x_max":1194,"o":"m 615 1082 q 1018 930 842 1081 q 1194 542 1194 779 q 1031 126 1194 288 q 615 -35 868 -35 q 200 126 364 -35 q 36 542 36 288 q 213 930 36 779 q 615 1081 389 1081 l 615 1082 m 615 818 q 406 733 493 817 q 319 540 319 649 q 406 317 319 406 q 615 228 493 228 q 824 317 738 228 q 911 540 911 406 q 824 733 911 649 q 615 817 738 817 l 615 818 z "},"P":{"ha":918,"x_min":89,"x_max":886,"o":"m 89 0 l 89 1047 l 506 1047 q 781 964 675 1046 q 886 701 886 882 q 790 431 886 517 q 515 346 693 346 l 361 347 l 361 0 l 89 0 l 89 0 m 361 828 l 361 567 l 407 567 q 542 581 481 565 q 603 693 603 597 q 544 809 603 792 q 407 826 486 826 l 361 828 l 361 828 z "},"Q":{"ha":1232,"x_min":36,"x_max":1236,"o":"m 1236 -26 l 986 -65 l 903 33 q 772 -19 843 -3 q 615 -35 700 -35 q 200 126 364 -35 q 36 542 36 288 q 213 930 36 779 q 615 1081 389 1081 q 1027 928 860 1081 q 1194 519 1194 775 q 1160 324 1194 415 q 1060 151 1125 233 l 1236 -26 l 1236 -26 m 789 442 l 863 365 q 892 418 881 389 q 908 478 903 447 q 910 498 910 488 q 911 518 911 508 q 826 726 911 636 q 617 817 740 817 q 407 733 494 817 q 319 540 319 649 q 407 317 319 406 q 617 228 494 228 q 658 231 638 228 q 700 242 679 235 l 532 410 l 789 442 l 789 442 z "},"R":{"ha":944,"x_min":89,"x_max":960,"o":"m 631 429 l 960 0 l 621 0 l 364 403 l 361 403 l 361 0 l 89 0 l 89 1047 l 496 1047 q 756 969 651 1046 q 860 724 860 892 q 801 531 860 615 q 631 428 742 447 l 631 429 m 361 839 l 361 578 l 388 578 q 401 576 394 576 q 414 576 408 576 q 526 605 475 579 q 576 707 576 631 q 526 809 576 783 q 414 838 475 835 q 401 838 408 838 q 388 838 394 838 l 361 839 l 361 839 z "},"S":{"ha":856,"x_min":42,"x_max":815,"o":"m 772 989 l 664 778 q 580 827 626 808 q 483 846 533 846 q 468 845 476 846 q 451 842 460 844 q 393 814 419 835 q 367 758 367 793 q 392 705 367 725 q 446 672 417 685 q 467 665 457 668 q 488 658 478 661 l 557 639 q 741 542 667 606 q 815 351 815 479 q 815 340 815 346 q 815 329 815 335 q 789 188 813 257 q 707 69 765 119 q 588 1 654 24 q 451 -26 521 -21 q 430 -27 440 -26 q 410 -28 419 -28 q 217 3 311 -28 q 42 90 122 35 l 158 311 q 270 233 210 265 q 400 201 331 201 q 406 201 403 201 q 411 201 408 201 q 494 230 457 204 q 532 307 532 256 q 501 369 532 346 q 431 407 469 393 q 397 417 414 413 q 367 426 381 422 q 360 428 364 428 q 354 431 357 429 q 157 519 231 465 q 83 722 83 574 q 185 978 83 882 q 444 1074 288 1074 q 510 1070 476 1074 q 576 1058 543 1067 q 680 1029 629 1047 q 772 988 731 1011 l 772 989 z "},"T":{"ha":740,"x_min":8,"x_max":731,"o":"m 506 817 l 506 0 l 233 0 l 233 817 l 8 817 l 8 1047 l 731 1047 l 731 817 l 506 817 l 506 817 z "},"U":{"ha":1081,"x_min":83,"x_max":997,"o":"m 725 1047 l 997 1047 l 997 458 q 981 260 997 356 q 888 88 965 164 q 769 12 838 38 q 628 -22 700 -14 q 583 -26 606 -25 q 540 -28 561 -28 q 497 -26 519 -28 q 453 -22 475 -25 q 312 12 381 -14 q 193 88 243 38 q 99 260 115 164 q 83 457 83 356 l 83 1047 l 356 1047 l 356 496 q 356 478 356 486 q 356 463 356 471 q 388 289 357 368 q 540 210 419 210 q 692 289 661 210 q 725 463 724 368 q 725 478 725 471 q 725 494 725 486 l 725 1047 l 725 1047 z "},"V":{"ha":1057,"x_min":-21,"x_max":1078,"o":"m 275 1047 l 528 411 l 782 1047 l 1078 1047 l 631 0 l 419 0 l -21 1047 l 275 1047 l 275 1047 z "},"W":{"ha":1551,"x_min":-21,"x_max":1572,"o":"m 263 1047 l 444 371 l 447 371 l 667 1047 l 883 1047 l 1089 371 l 1092 371 l 1289 1047 l 1572 1047 l 1238 0 l 960 0 l 776 607 l 774 607 l 568 0 l 292 0 l -21 1047 l 263 1047 l 263 1047 z "},"X":{"ha":1096,"x_min":-11,"x_max":1106,"o":"m 399 560 l 64 1047 l 399 1047 l 558 776 l 718 1047 l 1053 1047 l 718 560 l 1106 0 l 778 0 l 558 342 l 318 0 l -11 0 l 399 560 l 399 560 z "},"Y":{"ha":992,"x_min":-26,"x_max":1018,"o":"m 360 503 l -26 1047 l 300 1047 l 496 763 l 692 1047 l 1018 1047 l 632 503 l 632 0 l 360 0 l 360 503 l 360 503 z "},"Z":{"ha":982,"x_min":15,"x_max":967,"o":"m 474 231 l 913 231 l 913 0 l 15 0 l 511 817 l 100 817 l 100 1047 l 967 1047 l 474 231 l 474 231 z "},"[":{"ha":486,"x_min":72,"x_max":414,"o":"m 265 950 l 265 -186 l 414 -186 l 414 -333 l 72 -333 l 72 1097 l 414 1097 l 414 950 l 265 950 l 265 950 z "},"\\":{"ha":804,"x_min":38,"x_max":767,"o":"m 38 1153 l 238 1153 l 767 0 l 569 0 l 38 1153 l 38 1153 z "},"]":{"ha":486,"x_min":72,"x_max":414,"o":"m 221 -186 l 221 950 l 72 950 l 72 1097 l 414 1097 l 414 -333 l 72 -333 l 72 -186 l 221 -186 l 221 -186 z "},"^":{"ha":953,"x_min":143,"x_max":810,"o":"m 301 472 l 143 565 l 393 1089 l 560 1089 l 810 565 l 651 472 l 476 846 l 301 472 l 301 472 z "},"_":{"ha":694,"x_min":0,"x_max":694,"o":"m 694 -261 l 0 -261 l 0 -157 l 694 -157 l 694 -261 l 694 -261 z "},"`":{"ha":558,"x_min":104,"x_max":454,"o":"m 104 1028 l 258 1139 l 454 900 l 342 818 l 104 1028 l 104 1028 z "},"a":{"ha":947,"x_min":32,"x_max":863,"o":"m 863 713 l 863 0 l 610 0 l 610 79 l 607 79 q 524 5 576 29 q 414 -22 471 -19 q 403 -24 408 -24 q 392 -24 397 -24 q 133 90 233 -24 q 32 356 32 203 q 131 622 32 508 q 389 735 231 735 q 403 735 396 735 q 417 733 410 735 q 523 706 471 729 q 610 642 575 683 l 610 713 l 863 713 l 863 713 m 456 517 q 336 467 379 515 q 293 354 293 419 q 336 240 293 286 q 456 194 379 194 q 576 240 533 194 q 618 354 618 286 q 576 467 618 419 q 456 515 533 515 l 456 517 z "},"b":{"ha":947,"x_min":75,"x_max":906,"o":"m 75 0 l 75 1153 l 328 1153 l 328 643 q 419 708 365 685 q 528 735 472 731 q 538 735 533 735 q 549 735 543 735 q 806 622 707 735 q 906 356 906 508 q 806 89 906 201 q 546 -24 706 -24 q 538 -24 542 -24 q 529 -24 533 -24 q 417 3 471 -21 q 331 78 363 28 l 328 79 l 328 0 l 75 0 l 75 0 m 482 517 q 363 467 406 515 q 319 354 319 419 q 363 240 319 286 q 482 194 406 194 q 602 240 560 194 q 644 354 644 286 q 602 467 644 419 q 482 515 560 515 l 482 517 z "},"c":{"ha":671,"x_min":32,"x_max":597,"o":"m 597 694 l 597 481 q 536 515 569 500 q 467 529 503 529 q 344 479 394 529 q 293 356 293 429 q 343 230 293 279 q 471 181 393 181 q 485 181 478 181 q 500 183 493 182 q 552 199 526 188 q 597 229 578 211 l 597 17 q 510 -14 556 -4 q 419 -24 465 -24 q 147 81 261 -24 q 32 347 32 186 q 147 627 32 519 q 431 735 263 735 q 517 724 475 735 q 597 693 560 714 l 597 694 z "},"d":{"ha":947,"x_min":42,"x_max":872,"o":"m 619 0 l 619 79 l 617 79 q 533 5 586 29 q 424 -22 481 -19 q 413 -24 418 -24 q 401 -24 407 -24 q 142 90 243 -24 q 42 356 42 203 q 141 622 42 508 q 399 735 240 735 q 413 735 406 735 q 426 733 419 735 q 533 706 481 729 q 619 642 585 683 l 619 1153 l 872 1153 l 872 0 l 619 0 l 619 0 m 465 517 q 346 467 389 515 q 303 354 303 419 q 346 240 303 286 q 465 194 389 194 q 585 240 543 194 q 628 354 628 286 q 585 467 628 419 q 465 515 543 515 l 465 517 z "},"e":{"ha":847,"x_min":31,"x_max":815,"o":"m 815 340 l 815 314 l 283 314 q 324 195 283 236 q 442 154 364 154 q 512 169 482 154 q 563 219 542 185 l 806 221 q 670 35 775 93 q 443 -24 565 -24 q 149 73 267 -24 q 31 354 31 169 q 141 633 31 532 q 425 735 251 735 q 713 628 611 735 q 815 339 815 521 l 815 340 m 288 460 l 581 460 q 530 540 571 510 q 438 571 489 571 q 340 542 382 571 q 288 458 299 514 l 288 460 z "},"f":{"ha":539,"x_min":19,"x_max":538,"o":"m 361 504 l 361 0 l 108 0 l 108 504 l 19 504 l 19 713 l 108 713 l 108 803 q 114 908 108 860 q 146 1003 119 957 q 161 1027 153 1015 q 181 1051 169 1039 q 292 1136 228 1107 q 429 1165 357 1165 q 485 1160 458 1165 q 538 1140 511 1154 l 538 924 q 526 928 532 925 q 513 932 519 931 q 482 942 497 939 q 449 946 467 946 q 381 917 400 946 q 361 826 361 888 l 361 713 l 538 713 l 538 504 l 361 504 l 361 504 z "},"g":{"ha":940,"x_min":35,"x_max":865,"o":"m 865 713 l 865 69 q 758 -257 865 -158 q 453 -356 650 -356 q 397 -353 426 -356 q 339 -343 368 -350 q 148 -257 236 -321 q 47 -83 60 -193 l 331 -83 q 349 -116 336 -103 q 378 -137 361 -129 q 399 -147 388 -143 q 421 -151 410 -150 q 435 -153 428 -153 q 450 -154 443 -154 q 583 -95 553 -154 q 613 49 613 -36 l 613 83 q 510 10 564 33 q 386 -14 457 -14 q 133 90 231 -14 q 35 349 35 194 q 135 620 35 506 q 400 735 236 735 q 517 712 463 735 q 610 636 572 689 l 613 638 l 613 713 l 865 713 l 865 713 m 458 522 q 339 473 382 521 q 296 360 296 425 q 339 246 296 292 q 458 200 382 200 q 578 246 536 200 q 621 360 621 292 q 578 473 621 425 q 458 521 536 521 l 458 522 z "},"h":{"ha":918,"x_min":83,"x_max":835,"o":"m 83 1153 l 336 1153 l 336 622 l 339 622 q 438 707 383 679 q 567 735 493 735 q 769 653 703 735 q 835 435 835 571 l 835 0 l 582 0 l 582 365 q 582 367 582 365 q 582 372 582 369 q 562 483 582 432 q 468 533 542 533 q 367 483 396 533 q 336 372 338 432 q 336 367 336 369 q 336 364 336 365 l 336 0 l 83 0 l 83 1153 l 83 1153 z "},"i":{"ha":419,"x_min":68,"x_max":351,"o":"m 336 713 l 336 0 l 83 0 l 83 713 l 336 713 l 336 713 m 210 1128 q 310 1085 268 1126 q 351 985 351 1043 q 310 885 351 926 q 210 843 268 843 q 110 885 151 843 q 68 985 68 926 q 110 1085 68 1043 q 210 1126 151 1126 l 210 1128 z "},"j":{"ha":419,"x_min":68,"x_max":351,"o":"m 336 713 l 336 -356 l 83 -356 l 83 713 l 336 713 l 336 713 m 210 1128 q 310 1085 268 1126 q 351 985 351 1043 q 310 885 351 926 q 210 843 268 843 q 110 885 151 843 q 68 985 68 926 q 110 1085 68 1043 q 210 1126 151 1126 l 210 1128 z "},"k":{"ha":956,"x_min":83,"x_max":967,"o":"m 336 1153 l 336 456 l 599 713 l 944 713 l 588 383 l 967 0 l 613 0 l 336 290 l 336 0 l 83 0 l 83 1153 l 336 1153 l 336 1153 z "},"l":{"ha":419,"x_min":83,"x_max":336,"o":"m 336 1153 l 336 0 l 83 0 l 83 1153 l 336 1153 l 336 1153 z "},"m":{"ha":1374,"x_min":83,"x_max":1292,"o":"m 336 713 l 336 624 l 339 624 q 440 708 383 682 q 564 735 496 735 q 705 702 642 735 q 807 599 768 669 q 910 700 843 665 q 1049 735 976 735 q 1238 656 1185 735 q 1292 453 1292 576 l 1292 0 l 1039 0 l 1039 340 q 1039 342 1039 340 q 1039 344 1039 343 q 1039 375 1039 358 q 1038 408 1039 392 q 1013 494 1033 456 q 935 533 993 533 q 841 488 864 533 q 815 388 818 442 q 814 363 814 375 q 814 339 814 350 l 814 0 l 561 0 l 561 340 q 561 371 561 354 q 560 406 561 388 q 533 497 556 456 q 449 539 511 539 q 364 497 386 539 q 338 406 342 456 q 336 371 336 388 q 336 339 336 354 l 336 0 l 83 0 l 83 713 l 336 713 l 336 713 z "},"n":{"ha":918,"x_min":83,"x_max":835,"o":"m 336 713 l 336 621 l 339 621 q 438 710 383 685 q 567 735 493 735 q 773 653 711 735 q 835 439 835 571 l 835 0 l 582 0 l 582 347 q 582 354 582 350 q 582 363 582 358 q 582 389 582 375 q 581 417 582 403 q 556 497 578 460 q 468 533 533 533 q 364 484 392 533 q 336 368 336 435 l 336 0 l 83 0 l 83 713 l 336 713 l 336 713 z "},"o":{"ha":919,"x_min":31,"x_max":889,"o":"m 460 736 q 760 635 632 735 q 889 354 889 536 q 760 75 889 174 q 460 -24 632 -24 q 160 74 289 -24 q 31 354 31 172 q 159 635 31 536 q 460 735 288 735 l 460 736 m 460 517 q 340 467 383 515 q 297 354 297 419 q 340 240 297 286 q 460 194 383 194 q 580 240 538 194 q 622 354 622 286 q 580 467 622 419 q 460 515 538 515 l 460 517 z "},"p":{"ha":947,"x_min":75,"x_max":906,"o":"m 328 713 l 328 632 l 331 632 q 417 706 363 681 q 529 735 471 732 q 538 735 533 735 q 546 735 542 735 q 806 620 706 735 q 906 353 906 506 q 806 88 906 199 q 549 -24 707 -24 q 538 -24 543 -24 q 528 -24 533 -24 q 419 2 472 -19 q 328 67 365 24 l 328 -356 l 75 -356 l 75 713 l 328 713 l 328 713 m 482 517 q 363 467 406 515 q 319 354 319 419 q 363 240 319 286 q 482 194 406 194 q 602 240 560 194 q 644 354 644 286 q 602 467 644 419 q 482 515 560 515 l 482 517 z "},"q":{"ha":947,"x_min":42,"x_max":872,"o":"m 872 713 l 872 -356 l 619 -356 l 619 68 q 533 3 585 25 q 426 -22 481 -18 q 413 -24 419 -24 q 399 -24 406 -24 q 140 88 239 -24 q 42 353 42 199 q 142 620 42 506 q 401 735 243 735 q 413 735 407 735 q 424 733 418 735 q 533 705 481 731 q 617 631 586 679 l 619 632 l 619 713 l 872 713 l 872 713 m 465 517 q 346 467 389 515 q 303 354 303 419 q 346 240 303 286 q 465 194 389 194 q 585 240 543 194 q 628 354 628 286 q 585 467 628 419 q 465 515 543 515 l 465 517 z "},"r":{"ha":629,"x_min":83,"x_max":618,"o":"m 336 713 l 336 596 l 339 596 q 435 690 375 660 q 569 721 496 721 l 618 722 l 618 479 q 608 483 613 481 q 597 488 603 486 q 556 499 576 496 q 511 501 535 501 q 371 440 406 501 q 336 286 336 378 l 336 0 l 83 0 l 83 713 l 336 713 l 336 713 z "},"s":{"ha":713,"x_min":36,"x_max":660,"o":"m 639 690 l 554 529 q 517 544 538 538 q 476 556 497 551 q 447 560 461 558 q 418 563 432 563 q 403 562 411 563 q 389 558 396 561 q 354 544 369 554 q 339 514 339 533 q 359 478 339 490 q 404 461 379 467 q 431 455 418 457 q 453 451 443 453 q 601 386 542 433 q 660 240 660 339 q 560 42 660 104 q 339 -24 460 -19 q 331 -24 335 -24 q 324 -24 328 -24 q 174 -3 247 -24 q 36 57 101 18 l 128 235 q 182 202 151 217 q 244 176 213 188 q 288 165 267 169 q 328 161 308 161 q 340 162 333 161 q 353 164 346 163 q 390 181 374 168 q 407 215 407 193 q 378 259 407 246 q 308 281 349 272 q 278 287 293 283 q 249 294 264 290 q 140 348 189 310 q 90 482 90 386 q 186 672 90 611 q 396 735 282 733 q 401 735 399 735 q 404 735 403 735 q 524 724 465 735 q 639 689 583 714 l 639 690 z "},"t":{"ha":500,"x_min":25,"x_max":503,"o":"m 360 504 l 360 0 l 107 0 l 107 504 l 25 504 l 25 713 l 107 713 l 107 926 l 360 926 l 360 713 l 503 713 l 503 504 l 360 504 l 360 504 z "},"u":{"ha":915,"x_min":79,"x_max":838,"o":"m 79 713 l 332 713 l 332 332 q 356 219 332 263 q 458 176 381 176 q 560 219 536 176 q 585 331 585 263 l 585 713 l 838 713 l 838 283 q 728 41 838 106 q 458 -24 619 -24 q 189 41 299 -24 q 79 282 79 106 l 79 713 l 79 713 z "},"v":{"ha":865,"x_min":-21,"x_max":886,"o":"m 263 713 l 433 347 l 603 713 l 886 713 l 514 0 l 353 0 l -21 713 l 263 713 l 263 713 z "},"w":{"ha":1383,"x_min":-21,"x_max":1404,"o":"m 260 713 l 438 326 l 617 713 l 767 713 l 946 326 l 1125 713 l 1404 713 l 1032 0 l 868 0 l 692 390 l 515 0 l 351 0 l -21 713 l 260 713 l 260 713 z "},"x":{"ha":989,"x_min":-21,"x_max":1010,"o":"m 335 386 l 46 713 l 367 713 l 494 565 l 622 713 l 949 713 l 654 386 l 1010 0 l 678 0 l 494 211 l 311 0 l -21 0 l 335 386 l 335 386 z "},"y":{"ha":908,"x_min":-21,"x_max":935,"o":"m 324 97 l -21 713 l 271 713 l 461 347 l 647 713 l 935 713 l 364 -356 l 81 -356 l 324 97 l 324 97 z "},"z":{"ha":776,"x_min":11,"x_max":767,"o":"m 433 210 l 733 210 l 733 0 l 11 0 l 346 503 l 56 503 l 56 713 l 767 713 l 433 210 l 433 210 z "},"{":{"ha":489,"x_min":50,"x_max":439,"o":"m 50 315 l 50 460 q 53 458 51 458 q 56 458 54 458 q 74 458 64 458 q 93 461 83 458 q 131 480 114 465 q 147 532 147 494 l 147 885 q 176 1002 147 956 q 239 1072 204 1049 q 274 1090 257 1085 q 304 1096 292 1096 l 439 1097 l 439 931 l 404 931 q 351 907 361 929 q 340 857 340 885 q 340 853 340 856 q 340 847 340 850 l 340 536 q 316 447 340 476 q 263 403 292 417 q 233 392 247 396 q 207 388 218 389 l 207 386 q 233 381 218 383 q 263 372 247 378 q 316 327 292 360 q 340 222 340 294 l 340 -85 q 340 -87 340 -86 q 340 -89 340 -87 q 349 -142 340 -118 q 404 -167 358 -167 l 439 -167 l 439 -333 l 304 -333 q 274 -328 292 -333 q 239 -310 257 -322 q 176 -240 204 -286 q 147 -124 147 -194 l 147 228 q 131 290 147 272 q 93 311 114 307 q 79 313 86 313 q 67 314 72 314 q 57 314 61 314 q 50 314 53 314 l 50 315 z "},"|":{"ha":804,"x_min":299,"x_max":507,"o":"m 507 1153 l 507 0 l 299 0 l 299 1153 l 507 1153 l 507 1153 z "},"}":{"ha":489,"x_min":50,"x_max":439,"o":"m 439 460 l 439 315 q 431 314 436 314 q 421 314 426 314 q 409 313 415 314 q 396 311 403 313 q 358 290 375 307 q 342 226 342 272 l 342 -124 q 313 -240 342 -194 q 250 -310 285 -286 q 215 -328 232 -322 q 185 -333 197 -333 l 50 -333 l 50 -167 l 85 -167 q 140 -142 131 -167 q 149 -89 149 -118 q 149 -87 149 -87 q 149 -85 149 -86 l 149 224 q 173 327 149 294 q 226 372 197 360 q 256 381 242 378 q 282 385 271 383 l 282 389 q 256 392 271 389 q 226 403 242 396 q 173 447 197 417 q 149 535 149 476 l 149 849 q 149 853 149 850 q 149 857 149 856 q 138 907 149 885 q 85 929 128 929 l 50 931 l 50 1097 l 185 1097 q 215 1090 197 1096 q 250 1072 232 1085 q 313 1002 285 1049 q 342 883 342 956 l 342 533 q 358 480 342 494 q 396 461 375 465 q 415 458 406 458 q 433 458 425 458 q 436 458 435 458 q 439 458 438 458 l 439 460 z "},"~":{"ha":953,"x_min":68,"x_max":885,"o":"m 726 518 l 885 383 q 863 345 875 365 q 836 304 850 325 q 752 209 800 253 q 642 165 704 165 q 568 180 601 165 q 504 213 535 194 q 488 223 496 218 q 471 232 479 228 q 456 240 464 236 q 442 250 449 244 q 373 293 404 274 q 315 313 342 313 q 277 289 296 313 q 244 238 258 265 q 234 216 239 226 q 225 196 229 206 l 68 331 q 99 371 83 347 q 132 418 115 394 q 212 507 168 467 q 313 547 256 547 q 350 542 331 547 q 389 531 369 538 q 442 503 415 519 q 490 469 468 488 q 524 445 506 457 q 561 425 542 433 q 603 407 582 414 q 640 400 624 400 q 676 422 658 400 q 706 468 693 443 q 717 494 713 482 q 726 517 722 507 l 726 518 z "},"Ä":{"ha":1085,"x_min":-6,"x_max":1089,"o":"m 731 182 l 356 182 l 283 0 l -6 0 l 397 1047 l 694 1047 l 1089 0 l 799 0 l 731 182 l 731 182 m 657 390 l 546 724 l 543 724 l 431 390 l 657 390 l 657 390 m 365 1446 q 462 1405 422 1444 q 501 1308 501 1365 q 462 1212 501 1251 q 365 1172 422 1172 q 268 1212 308 1172 q 228 1308 228 1251 q 268 1405 228 1365 q 365 1444 308 1444 l 365 1446 m 721 1446 q 817 1405 778 1444 q 857 1308 857 1365 q 817 1212 857 1251 q 721 1172 778 1172 q 624 1212 664 1172 q 583 1308 583 1251 q 624 1405 583 1365 q 721 1444 664 1444 l 721 1446 z "},"Å":{"ha":1085,"x_min":-6,"x_max":1089,"o":"m 731 182 l 356 182 l 283 0 l -6 0 l 397 1047 l 694 1047 l 1089 0 l 799 0 l 731 182 l 731 182 m 657 390 l 546 724 l 543 724 l 431 390 l 657 390 l 657 390 m 540 1467 q 549 1465 544 1465 q 558 1465 554 1465 q 694 1426 632 1461 q 756 1306 756 1390 q 694 1185 756 1221 q 560 1146 633 1149 q 552 1146 556 1146 q 544 1146 549 1146 q 533 1146 539 1146 q 519 1147 526 1146 q 389 1186 449 1151 q 329 1304 329 1221 q 392 1428 329 1392 q 532 1465 456 1464 q 537 1465 535 1465 q 540 1465 539 1465 l 540 1467 m 543 1367 q 538 1365 540 1365 q 533 1365 535 1365 q 483 1349 506 1363 q 461 1306 461 1336 q 483 1262 461 1275 q 533 1246 506 1249 q 538 1246 535 1246 q 543 1246 540 1246 q 549 1246 546 1246 q 556 1246 553 1246 q 603 1263 582 1249 q 624 1306 624 1276 q 603 1349 624 1335 q 556 1365 582 1363 q 549 1365 553 1365 q 543 1365 546 1365 l 543 1367 z "},"Ç":{"ha":917,"x_min":36,"x_max":838,"o":"m 617 -131 l 407 -329 l 299 -261 l 479 -42 l 617 -131 l 617 -131 m 838 1022 l 838 696 q 732 781 796 751 q 599 810 668 810 q 397 726 474 810 q 319 519 319 642 q 398 315 319 396 q 603 235 476 235 q 732 265 669 235 q 838 346 794 294 l 838 21 q 767 -1 800 8 q 701 -17 733 -10 q 651 -25 676 -22 q 597 -28 625 -28 q 387 12 488 -28 q 204 125 286 51 q 77 303 118 203 q 36 521 36 404 q 76 728 36 628 q 190 904 115 828 q 367 1026 265 981 q 576 1074 468 1071 q 583 1074 579 1074 q 589 1074 586 1074 q 716 1060 654 1074 q 838 1021 778 1046 l 838 1022 z "},"É":{"ha":764,"x_min":89,"x_max":685,"o":"m 685 817 l 361 817 l 361 642 l 668 642 l 668 411 l 361 411 l 361 231 l 685 231 l 685 0 l 89 0 l 89 1047 l 685 1047 l 685 817 l 685 817 m 557 1363 l 319 1153 l 207 1235 l 403 1474 l 557 1363 l 557 1363 z "},"Ñ":{"ha":1224,"x_min":89,"x_max":1135,"o":"m 89 0 l 89 1047 l 361 1047 l 860 407 l 863 407 l 863 1047 l 1135 1047 l 1135 0 l 863 0 l 364 642 l 361 642 l 361 0 l 89 0 l 89 0 m 450 1190 l 336 1190 l 335 1206 q 342 1269 335 1238 q 365 1328 349 1300 q 417 1383 385 1360 q 489 1406 450 1406 q 534 1401 510 1406 q 582 1389 558 1396 q 595 1385 589 1388 q 608 1382 601 1383 q 667 1366 639 1374 q 715 1358 694 1358 q 751 1371 740 1358 q 769 1404 761 1383 q 770 1406 769 1406 q 771 1408 771 1407 l 889 1410 q 886 1387 888 1397 q 883 1365 885 1376 q 827 1244 869 1300 q 708 1189 785 1189 q 676 1192 693 1189 q 644 1200 660 1194 q 622 1207 633 1203 q 601 1215 611 1211 q 548 1232 574 1224 q 497 1240 522 1240 q 467 1227 475 1240 q 453 1196 458 1214 q 451 1192 451 1194 q 450 1189 450 1190 l 450 1190 z "},"Ö":{"ha":1232,"x_min":36,"x_max":1194,"o":"m 615 1082 q 1018 930 842 1081 q 1194 542 1194 779 q 1031 126 1194 288 q 615 -35 868 -35 q 200 126 364 -35 q 36 542 36 288 q 213 930 36 779 q 615 1081 389 1081 l 615 1082 m 615 818 q 406 733 493 817 q 319 540 319 649 q 406 317 319 406 q 615 228 493 228 q 824 317 738 228 q 911 540 911 406 q 824 733 911 649 q 615 817 738 817 l 615 818 m 439 1446 q 535 1405 496 1444 q 575 1308 575 1365 q 535 1212 575 1251 q 439 1172 496 1172 q 342 1212 382 1172 q 301 1308 301 1251 q 342 1405 301 1365 q 439 1444 382 1444 l 439 1446 m 794 1446 q 891 1405 851 1444 q 931 1308 931 1365 q 891 1212 931 1251 q 794 1172 851 1172 q 697 1212 738 1172 q 657 1308 657 1251 q 697 1405 657 1365 q 794 1444 738 1444 l 794 1446 z "},"Ü":{"ha":1081,"x_min":83,"x_max":997,"o":"m 725 1047 l 997 1047 l 997 458 q 981 260 997 356 q 888 88 965 164 q 769 12 838 38 q 628 -22 700 -14 q 583 -26 606 -25 q 540 -28 561 -28 q 497 -26 519 -28 q 453 -22 475 -25 q 312 12 381 -14 q 193 88 243 38 q 99 260 115 164 q 83 457 83 356 l 83 1047 l 356 1047 l 356 496 q 356 478 356 486 q 356 463 356 471 q 388 289 357 368 q 540 210 419 210 q 692 289 661 210 q 725 463 724 368 q 725 478 725 471 q 725 494 725 486 l 725 1047 l 725 1047 m 363 1446 q 459 1405 419 1444 q 499 1308 499 1365 q 459 1212 499 1251 q 363 1172 419 1172 q 265 1212 306 1172 q 225 1308 225 1251 q 265 1405 225 1365 q 363 1444 306 1444 l 363 1446 m 718 1446 q 815 1405 775 1444 q 854 1308 854 1365 q 815 1212 854 1251 q 718 1172 775 1172 q 621 1212 661 1172 q 581 1308 581 1251 q 621 1405 581 1365 q 718 1444 661 1444 l 718 1446 z "},"á":{"ha":947,"x_min":32,"x_max":863,"o":"m 863 713 l 863 0 l 610 0 l 610 79 l 607 79 q 524 5 576 29 q 414 -22 471 -19 q 403 -24 408 -24 q 392 -24 397 -24 q 133 90 233 -24 q 32 356 32 203 q 131 622 32 508 q 389 735 231 735 q 403 735 396 735 q 417 733 410 735 q 523 706 471 729 q 610 642 575 683 l 610 713 l 863 713 l 863 713 m 456 517 q 336 467 379 515 q 293 354 293 419 q 336 240 293 286 q 456 194 379 194 q 576 240 533 194 q 618 354 618 286 q 576 467 618 419 q 456 515 533 515 l 456 517 m 649 1028 l 411 818 l 299 900 l 494 1139 l 649 1028 l 649 1028 z "},"à":{"ha":947,"x_min":32,"x_max":863,"o":"m 863 713 l 863 0 l 610 0 l 610 79 l 607 79 q 524 5 576 29 q 414 -22 471 -19 q 403 -24 408 -24 q 392 -24 397 -24 q 133 90 233 -24 q 32 356 32 203 q 131 622 32 508 q 389 735 231 735 q 403 735 396 735 q 417 733 410 735 q 523 706 471 729 q 610 642 575 683 l 610 713 l 863 713 l 863 713 m 456 517 q 336 467 379 515 q 293 354 293 419 q 336 240 293 286 q 456 194 379 194 q 576 240 533 194 q 618 354 618 286 q 576 467 618 419 q 456 515 533 515 l 456 517 m 299 1028 l 453 1139 l 649 900 l 536 818 l 299 1028 l 299 1028 z "},"â":{"ha":947,"x_min":32,"x_max":863,"o":"m 863 713 l 863 0 l 610 0 l 610 79 l 607 79 q 524 5 576 29 q 414 -22 471 -19 q 403 -24 408 -24 q 392 -24 397 -24 q 133 90 233 -24 q 32 356 32 203 q 131 622 32 508 q 389 735 231 735 q 403 735 396 735 q 417 733 410 735 q 523 706 471 729 q 610 642 575 683 l 610 713 l 863 713 l 863 713 m 456 517 q 336 467 379 515 q 293 354 293 419 q 336 240 293 286 q 456 194 379 194 q 576 240 533 194 q 618 354 618 286 q 576 467 618 419 q 456 515 533 515 l 456 517 m 168 924 l 471 1151 l 778 924 l 671 807 l 471 961 l 271 807 l 168 924 l 168 924 z "},"ä":{"ha":947,"x_min":32,"x_max":863,"o":"m 863 713 l 863 0 l 610 0 l 610 79 l 607 79 q 524 5 576 29 q 414 -22 471 -19 q 403 -24 408 -24 q 392 -24 397 -24 q 133 90 233 -24 q 32 356 32 203 q 131 622 32 508 q 389 735 231 735 q 403 735 396 735 q 417 733 410 735 q 523 706 471 729 q 610 642 575 683 l 610 713 l 863 713 l 863 713 m 456 517 q 336 467 379 515 q 293 354 293 419 q 336 240 293 286 q 456 194 379 194 q 576 240 533 194 q 618 354 618 286 q 576 467 618 419 q 456 515 533 515 l 456 517 m 296 1111 q 392 1070 353 1110 q 432 974 432 1031 q 392 877 432 917 q 296 838 353 838 q 199 877 239 838 q 158 974 158 917 q 199 1070 158 1031 q 296 1110 239 1110 l 296 1111 m 651 1111 q 748 1070 708 1110 q 788 974 788 1031 q 748 877 788 917 q 651 838 708 838 q 554 877 594 838 q 514 974 514 917 q 554 1070 514 1031 q 651 1110 594 1110 l 651 1111 z "},"ã":{"ha":947,"x_min":32,"x_max":863,"o":"m 863 713 l 863 0 l 610 0 l 610 79 l 607 79 q 524 5 576 29 q 414 -22 471 -19 q 403 -24 408 -24 q 392 -24 397 -24 q 133 90 233 -24 q 32 356 32 203 q 131 622 32 508 q 389 735 231 735 q 403 735 396 735 q 417 733 410 735 q 523 706 471 729 q 610 642 575 683 l 610 713 l 863 713 l 863 713 m 456 517 q 336 467 379 515 q 293 354 293 419 q 336 240 293 286 q 456 194 379 194 q 576 240 533 194 q 618 354 618 286 q 576 467 618 419 q 456 515 533 515 l 456 517 m 313 856 l 199 856 l 197 871 q 204 934 197 903 q 228 993 211 965 q 280 1048 247 1025 q 351 1071 313 1071 q 397 1066 372 1071 q 444 1054 421 1061 q 458 1051 451 1053 q 471 1047 464 1049 q 529 1031 501 1039 q 578 1024 557 1024 q 613 1036 603 1024 q 632 1069 624 1049 q 633 1072 632 1071 q 633 1074 633 1072 l 751 1075 q 749 1052 750 1063 q 746 1031 747 1042 q 690 910 732 965 q 571 854 647 854 q 539 857 556 854 q 507 865 522 860 q 485 872 496 868 q 464 881 474 876 q 410 897 436 889 q 360 906 385 906 q 329 892 338 906 q 315 861 321 879 q 313 858 314 860 q 313 854 313 856 l 313 856 z "},"å":{"ha":947,"x_min":32,"x_max":863,"o":"m 863 713 l 863 0 l 610 0 l 610 79 l 607 79 q 524 5 576 29 q 414 -22 471 -19 q 403 -24 408 -24 q 392 -24 397 -24 q 133 90 233 -24 q 32 356 32 203 q 131 622 32 508 q 389 735 231 735 q 403 735 396 735 q 417 733 410 735 q 523 706 471 729 q 610 642 575 683 l 610 713 l 863 713 l 863 713 m 456 517 q 336 467 379 515 q 293 354 293 419 q 336 240 293 286 q 456 194 379 194 q 576 240 533 194 q 618 354 618 286 q 576 467 618 419 q 456 515 533 515 l 456 517 m 472 1132 q 481 1131 476 1131 q 490 1131 486 1131 q 626 1091 564 1126 q 688 971 688 1056 q 626 850 688 886 q 492 811 565 814 q 484 811 488 811 q 476 811 481 811 q 465 811 471 811 q 451 813 458 811 q 321 851 381 817 q 261 969 261 886 q 324 1093 261 1057 q 464 1131 388 1129 q 469 1131 467 1131 q 472 1131 471 1131 l 472 1132 m 475 1032 q 469 1031 472 1031 q 465 1031 467 1031 q 415 1015 438 1028 q 393 971 393 1001 q 415 927 393 940 q 465 911 438 914 q 469 911 467 911 q 475 911 472 911 q 481 911 478 911 q 488 911 485 911 q 535 928 514 914 q 556 971 556 942 q 535 1014 556 1000 q 488 1031 514 1028 q 481 1031 485 1031 q 475 1031 478 1031 l 475 1032 z "},"ç":{"ha":671,"x_min":32,"x_max":597,"o":"m 494 -131 l 285 -329 l 176 -261 l 357 -42 l 494 -131 l 494 -131 m 597 694 l 597 481 q 536 515 569 500 q 467 529 503 529 q 344 479 394 529 q 293 356 293 429 q 343 230 293 279 q 471 181 393 181 q 485 181 478 181 q 500 183 493 182 q 552 199 526 188 q 597 229 578 211 l 597 17 q 510 -14 556 -4 q 419 -24 465 -24 q 147 81 261 -24 q 32 347 32 186 q 147 627 32 519 q 431 735 263 735 q 517 724 475 735 q 597 693 560 714 l 597 694 z "},"é":{"ha":847,"x_min":31,"x_max":815,"o":"m 815 340 l 815 314 l 283 314 q 324 195 283 236 q 442 154 364 154 q 512 169 482 154 q 563 219 542 185 l 806 221 q 670 35 775 93 q 443 -24 565 -24 q 149 73 267 -24 q 31 354 31 169 q 141 633 31 532 q 425 735 251 735 q 713 628 611 735 q 815 339 815 521 l 815 340 m 288 460 l 581 460 q 530 540 571 510 q 438 571 489 571 q 340 542 382 571 q 288 458 299 514 l 288 460 m 599 1028 l 361 818 l 249 900 l 444 1139 l 599 1028 l 599 1028 z "},"è":{"ha":847,"x_min":31,"x_max":815,"o":"m 815 340 l 815 314 l 283 314 q 324 195 283 236 q 442 154 364 154 q 512 169 482 154 q 563 219 542 185 l 806 221 q 670 35 775 93 q 443 -24 565 -24 q 149 73 267 -24 q 31 354 31 169 q 141 633 31 532 q 425 735 251 735 q 713 628 611 735 q 815 339 815 521 l 815 340 m 288 460 l 581 460 q 530 540 571 510 q 438 571 489 571 q 340 542 382 571 q 288 458 299 514 l 288 460 m 249 1028 l 403 1139 l 599 900 l 486 818 l 249 1028 l 249 1028 z "},"ê":{"ha":847,"x_min":31,"x_max":815,"o":"m 815 340 l 815 314 l 283 314 q 324 195 283 236 q 442 154 364 154 q 512 169 482 154 q 563 219 542 185 l 806 221 q 670 35 775 93 q 443 -24 565 -24 q 149 73 267 -24 q 31 354 31 169 q 141 633 31 532 q 425 735 251 735 q 713 628 611 735 q 815 339 815 521 l 815 340 m 288 460 l 581 460 q 530 540 571 510 q 438 571 489 571 q 340 542 382 571 q 288 458 299 514 l 288 460 m 118 924 l 421 1151 l 728 924 l 621 807 l 421 961 l 221 807 l 118 924 l 118 924 z "},"ë":{"ha":847,"x_min":31,"x_max":815,"o":"m 815 340 l 815 314 l 283 314 q 324 195 283 236 q 442 154 364 154 q 512 169 482 154 q 563 219 542 185 l 806 221 q 670 35 775 93 q 443 -24 565 -24 q 149 73 267 -24 q 31 354 31 169 q 141 633 31 532 q 425 735 251 735 q 713 628 611 735 q 815 339 815 521 l 815 340 m 288 460 l 581 460 q 530 540 571 510 q 438 571 489 571 q 340 542 382 571 q 288 458 299 514 l 288 460 m 246 1111 q 342 1070 303 1110 q 382 974 382 1031 q 342 877 382 917 q 246 838 303 838 q 149 877 189 838 q 108 974 108 917 q 149 1070 108 1031 q 246 1110 189 1110 l 246 1111 m 601 1111 q 698 1070 658 1110 q 738 974 738 1031 q 698 877 738 917 q 601 838 658 838 q 504 877 544 838 q 464 974 464 917 q 504 1070 464 1031 q 601 1110 544 1110 l 601 1111 z "},"í":{"ha":419,"x_min":35,"x_max":385,"o":"m 336 713 l 336 0 l 83 0 l 83 713 l 336 713 l 336 713 m 385 1028 l 147 818 l 35 900 l 231 1139 l 385 1028 l 385 1028 z "},"ì":{"ha":419,"x_min":35,"x_max":385,"o":"m 336 713 l 336 0 l 83 0 l 83 713 l 336 713 l 336 713 m 35 1028 l 189 1139 l 385 900 l 272 818 l 35 1028 l 35 1028 z "},"î":{"ha":419,"x_min":-96,"x_max":514,"o":"m 336 713 l 336 0 l 83 0 l 83 713 l 336 713 l 336 713 m -96 924 l 207 1151 l 514 924 l 407 807 l 207 961 l 7 807 l -96 924 l -96 924 z "},"ï":{"ha":419,"x_min":-104,"x_max":524,"o":"m 336 713 l 336 0 l 83 0 l 83 713 l 336 713 l 336 713 m 32 1111 q 128 1070 89 1110 q 168 974 168 1031 q 128 877 168 917 q 32 838 89 838 q -64 877 -24 838 q -104 974 -104 917 q -64 1070 -104 1031 q 32 1110 -24 1110 l 32 1111 m 388 1111 q 484 1070 444 1110 q 524 974 524 1031 q 484 877 524 917 q 388 838 444 838 q 290 877 331 838 q 250 974 250 917 q 290 1070 250 1031 q 388 1110 331 1110 l 388 1111 z "},"ñ":{"ha":918,"x_min":83,"x_max":835,"o":"m 336 713 l 336 621 l 339 621 q 438 710 383 685 q 567 735 493 735 q 773 653 711 735 q 835 439 835 571 l 835 0 l 582 0 l 582 347 q 582 354 582 350 q 582 363 582 358 q 582 389 582 375 q 581 417 582 403 q 556 497 578 460 q 468 533 533 533 q 364 484 392 533 q 336 368 336 435 l 336 0 l 83 0 l 83 713 l 336 713 l 336 713 m 297 856 l 183 856 l 182 871 q 189 934 182 903 q 213 993 196 965 q 265 1048 232 1025 q 336 1071 297 1071 q 381 1066 357 1071 q 429 1054 406 1061 q 442 1051 436 1053 q 456 1047 449 1049 q 514 1031 486 1039 q 563 1024 542 1024 q 598 1036 588 1024 q 617 1069 608 1049 q 617 1072 617 1071 q 618 1074 618 1072 l 736 1075 q 733 1052 735 1063 q 731 1031 732 1042 q 674 910 717 965 q 556 854 632 854 q 524 857 540 854 q 492 865 507 860 q 469 872 481 868 q 449 881 458 876 q 395 897 421 889 q 344 906 369 906 q 314 892 322 906 q 300 861 306 879 q 298 858 299 860 q 297 854 297 856 l 297 856 z "},"ó":{"ha":919,"x_min":31,"x_max":889,"o":"m 460 736 q 760 635 632 735 q 889 354 889 536 q 760 75 889 174 q 460 -24 632 -24 q 160 74 289 -24 q 31 354 31 172 q 159 635 31 536 q 460 735 288 735 l 460 736 m 460 517 q 340 467 383 515 q 297 354 297 419 q 340 240 297 286 q 460 194 383 194 q 580 240 538 194 q 622 354 622 286 q 580 467 622 419 q 460 515 538 515 l 460 517 m 635 1028 l 397 818 l 285 900 l 481 1139 l 635 1028 l 635 1028 z "},"ò":{"ha":919,"x_min":31,"x_max":889,"o":"m 460 736 q 760 635 632 735 q 889 354 889 536 q 760 75 889 174 q 460 -24 632 -24 q 160 74 289 -24 q 31 354 31 172 q 159 635 31 536 q 460 735 288 735 l 460 736 m 460 517 q 340 467 383 515 q 297 354 297 419 q 340 240 297 286 q 460 194 383 194 q 580 240 538 194 q 622 354 622 286 q 580 467 622 419 q 460 515 538 515 l 460 517 m 285 1028 l 439 1139 l 635 900 l 522 818 l 285 1028 l 285 1028 z "},"ô":{"ha":919,"x_min":31,"x_max":889,"o":"m 460 736 q 760 635 632 735 q 889 354 889 536 q 760 75 889 174 q 460 -24 632 -24 q 160 74 289 -24 q 31 354 31 172 q 159 635 31 536 q 460 735 288 735 l 460 736 m 460 517 q 340 467 383 515 q 297 354 297 419 q 340 240 297 286 q 460 194 383 194 q 580 240 538 194 q 622 354 622 286 q 580 467 622 419 q 460 515 538 515 l 460 517 m 154 924 l 457 1151 l 764 924 l 657 807 l 457 961 l 257 807 l 154 924 l 154 924 z "},"ö":{"ha":919,"x_min":31,"x_max":889,"o":"m 460 736 q 760 635 632 735 q 889 354 889 536 q 760 75 889 174 q 460 -24 632 -24 q 160 74 289 -24 q 31 354 31 172 q 159 635 31 536 q 460 735 288 735 l 460 736 m 460 517 q 340 467 383 515 q 297 354 297 419 q 340 240 297 286 q 460 194 383 194 q 580 240 538 194 q 622 354 622 286 q 580 467 622 419 q 460 515 538 515 l 460 517 m 282 1111 q 378 1070 339 1110 q 418 974 418 1031 q 378 877 418 917 q 282 838 339 838 q 185 877 225 838 q 144 974 144 917 q 185 1070 144 1031 q 282 1110 225 1110 l 282 1111 m 638 1111 q 734 1070 694 1110 q 774 974 774 1031 q 734 877 774 917 q 638 838 694 838 q 540 877 581 838 q 500 974 500 917 q 540 1070 500 1031 q 638 1110 581 1110 l 638 1111 z "},"õ":{"ha":919,"x_min":31,"x_max":889,"o":"m 460 736 q 760 635 632 735 q 889 354 889 536 q 760 75 889 174 q 460 -24 632 -24 q 160 74 289 -24 q 31 354 31 172 q 159 635 31 536 q 460 735 288 735 l 460 736 m 460 517 q 340 467 383 515 q 297 354 297 419 q 340 240 297 286 q 460 194 383 194 q 580 240 538 194 q 622 354 622 286 q 580 467 622 419 q 460 515 538 515 l 460 517 m 299 856 l 185 856 l 183 871 q 190 934 183 903 q 214 993 197 965 q 266 1048 233 1025 q 338 1071 299 1071 q 383 1066 358 1071 q 431 1054 407 1061 q 444 1051 438 1053 q 457 1047 450 1049 q 515 1031 488 1039 q 564 1024 543 1024 q 599 1036 589 1024 q 618 1069 610 1049 q 619 1072 618 1071 q 619 1074 619 1072 l 738 1075 q 735 1052 736 1063 q 732 1031 733 1042 q 676 910 718 965 q 557 854 633 854 q 525 857 542 854 q 493 865 508 860 q 471 872 482 868 q 450 881 460 876 q 397 897 422 889 q 346 906 371 906 q 315 892 324 906 q 301 861 307 879 q 299 858 300 860 q 299 854 299 856 l 299 856 z "},"ú":{"ha":915,"x_min":79,"x_max":838,"o":"m 79 713 l 332 713 l 332 332 q 356 219 332 263 q 458 176 381 176 q 560 219 536 176 q 585 331 585 263 l 585 713 l 838 713 l 838 283 q 728 41 838 106 q 458 -24 619 -24 q 189 41 299 -24 q 79 282 79 106 l 79 713 l 79 713 m 633 1028 l 396 818 l 283 900 l 479 1139 l 633 1028 l 633 1028 z "},"ù":{"ha":915,"x_min":79,"x_max":838,"o":"m 79 713 l 332 713 l 332 332 q 356 219 332 263 q 458 176 381 176 q 560 219 536 176 q 585 331 585 263 l 585 713 l 838 713 l 838 283 q 728 41 838 106 q 458 -24 619 -24 q 189 41 299 -24 q 79 282 79 106 l 79 713 l 79 713 m 283 1028 l 438 1139 l 633 900 l 521 818 l 283 1028 l 283 1028 z "},"û":{"ha":915,"x_min":79,"x_max":838,"o":"m 79 713 l 332 713 l 332 332 q 356 219 332 263 q 458 176 381 176 q 560 219 536 176 q 585 331 585 263 l 585 713 l 838 713 l 838 283 q 728 41 838 106 q 458 -24 619 -24 q 189 41 299 -24 q 79 282 79 106 l 79 713 l 79 713 m 153 924 l 456 1151 l 763 924 l 656 807 l 456 961 l 256 807 l 153 924 l 153 924 z "},"ü":{"ha":915,"x_min":79,"x_max":838,"o":"m 79 713 l 332 713 l 332 332 q 356 219 332 263 q 458 176 381 176 q 560 219 536 176 q 585 331 585 263 l 585 713 l 838 713 l 838 283 q 728 41 838 106 q 458 -24 619 -24 q 189 41 299 -24 q 79 282 79 106 l 79 713 l 79 713 m 281 1111 q 377 1070 338 1110 q 417 974 417 1031 q 377 877 417 917 q 281 838 338 838 q 183 877 224 838 q 143 974 143 917 q 183 1070 143 1031 q 281 1110 224 1110 l 281 1111 m 636 1111 q 733 1070 693 1110 q 772 974 772 1031 q 733 877 772 917 q 636 838 693 838 q 539 877 579 838 q 499 974 499 917 q 539 1070 499 1031 q 636 1110 579 1110 l 636 1111 z "},"†":{"ha":953,"x_min":117,"x_max":838,"o":"m 361 1047 l 592 1047 l 592 763 l 838 763 l 838 563 l 592 563 l 592 -250 l 361 -250 l 361 563 l 117 563 l 117 763 l 361 763 l 361 1047 l 361 1047 z "},"¢":{"ha":953,"x_min":196,"x_max":757,"o":"m 547 14 l 547 151 q 299 267 401 157 q 196 522 196 376 q 294 783 196 679 q 547 901 393 888 l 547 1032 l 676 1032 l 676 894 l 757 871 l 757 644 q 701 681 732 667 q 635 696 671 696 q 510 649 561 696 q 460 526 460 601 q 507 406 460 456 q 626 356 554 356 q 632 356 629 356 q 638 356 635 356 q 703 369 671 357 q 757 408 735 382 l 757 183 q 717 169 738 175 q 676 160 697 163 l 676 14 l 547 14 l 547 14 z "},"£":{"ha":953,"x_min":26,"x_max":928,"o":"m 664 417 l 467 417 q 476 373 474 397 q 479 321 479 349 q 479 315 479 318 q 479 310 479 313 q 475 266 478 288 q 467 229 472 244 l 482 225 q 502 217 492 221 q 525 210 513 213 q 556 200 540 204 q 588 192 572 196 q 641 181 615 185 q 688 176 667 176 q 739 194 719 176 q 758 244 758 213 l 928 246 q 858 54 919 131 q 672 -22 796 -22 q 615 -17 643 -22 q 560 -6 588 -12 q 532 1 546 -1 q 503 8 518 4 q 492 13 497 11 q 481 15 486 14 q 461 21 471 18 q 439 26 451 24 q 415 33 428 29 q 390 39 403 36 q 344 47 367 43 q 304 50 322 50 q 293 49 299 50 q 283 49 288 49 q 242 33 261 44 q 217 0 222 21 l 36 0 q 39 10 38 4 q 42 21 40 15 q 123 174 63 104 q 275 244 183 243 q 281 259 279 251 q 286 275 283 267 q 288 290 288 282 q 289 304 289 297 q 277 361 288 333 q 250 415 267 389 l 26 417 l 26 522 l 176 522 q 140 606 153 560 q 126 699 126 651 q 156 843 126 774 q 239 964 185 913 q 376 1044 300 1022 q 532 1065 451 1065 q 828 970 739 1065 q 918 671 917 875 l 649 672 l 649 721 q 612 812 649 772 q 522 851 575 851 q 424 808 458 851 q 390 704 390 764 q 406 607 390 653 q 447 521 421 561 l 664 522 l 664 417 l 664 417 z "},"§":{"ha":953,"x_min":79,"x_max":875,"o":"m 782 818 l 564 818 q 530 876 556 853 q 465 900 504 900 q 411 881 435 900 q 388 829 388 863 q 415 766 388 789 q 476 726 443 743 q 497 716 488 721 q 517 707 507 711 l 671 631 q 681 624 676 626 q 690 619 685 622 q 822 529 769 579 q 875 376 875 479 q 842 254 875 310 q 758 158 810 199 q 803 98 786 133 q 825 25 819 63 q 828 1 828 13 q 829 -21 829 -10 q 716 -246 829 -172 q 467 -319 603 -319 q 456 -319 461 -319 q 444 -319 450 -319 q 194 -236 307 -312 q 82 -10 81 -160 q 82 -6 82 -8 q 82 -3 82 -4 q 82 0 82 -1 q 82 3 82 1 l 336 4 q 336 1 336 1 q 336 0 336 0 q 376 -85 336 -51 q 464 -122 417 -119 q 469 -122 467 -122 q 472 -122 471 -122 q 547 -98 515 -122 q 578 -29 578 -74 q 552 29 578 7 q 496 67 526 51 q 478 75 486 71 q 461 83 469 79 l 242 192 q 124 281 169 226 q 79 419 79 335 q 114 546 79 488 q 199 646 149 604 q 165 693 179 665 q 143 751 150 721 q 138 780 140 765 q 136 808 136 794 q 235 1007 136 940 q 453 1074 333 1074 q 676 1015 576 1074 q 782 817 776 956 l 782 818 m 396 375 l 628 260 q 648 282 639 268 q 661 311 657 296 q 663 322 663 317 q 664 333 664 328 q 641 388 664 367 q 590 424 618 408 q 576 431 583 428 q 563 438 569 435 l 335 554 q 303 522 315 542 q 292 478 292 501 q 315 422 292 443 q 368 388 339 401 q 382 380 375 383 q 396 374 389 376 l 396 375 z "},"¶":{"ha":953,"x_min":64,"x_max":888,"o":"m 364 1047 l 888 1047 l 888 921 l 796 921 l 796 -236 l 656 -236 l 656 919 l 526 919 l 526 -236 l 386 -236 l 386 403 q 174 476 265 413 q 65 700 83 539 q 65 708 65 704 q 64 714 64 711 q 64 720 64 717 q 64 728 64 724 q 156 947 64 847 q 364 1046 247 1046 l 364 1047 z "},"ß":{"ha":904,"x_min":11,"x_max":874,"o":"m 83 614 l 83 818 q 83 823 83 819 q 83 829 83 826 q 100 962 85 897 q 169 1074 115 1026 q 269 1135 213 1114 q 386 1163 326 1156 q 415 1165 400 1164 q 444 1165 431 1165 q 688 1088 586 1165 q 790 858 790 1011 q 758 734 790 783 q 667 640 725 685 q 822 534 769 600 q 874 344 874 468 q 872 304 874 325 q 865 263 869 283 q 830 154 856 207 q 763 67 804 101 q 667 11 721 31 q 558 -17 614 -8 q 510 -22 535 -21 q 464 -24 486 -24 l 410 -24 l 410 192 q 413 190 411 190 q 415 190 414 190 q 418 190 417 190 q 421 190 419 190 q 547 235 496 190 q 597 358 597 281 q 546 482 597 435 q 422 528 494 529 q 416 528 419 528 q 410 528 413 528 l 410 731 q 413 729 411 729 q 415 729 414 729 q 417 729 415 729 q 419 729 418 729 q 511 756 475 729 q 547 842 547 782 q 519 919 547 890 q 442 947 490 947 q 352 900 368 947 q 336 797 336 853 q 336 792 336 794 q 336 789 336 790 l 336 0 l 83 0 l 83 413 l 11 413 l 11 614 l 83 614 l 83 614 z "},"®":{"ha":1111,"x_min":6,"x_max":1106,"o":"m 556 -28 q 165 133 325 -28 q 6 521 6 293 q 165 913 6 751 q 556 1074 325 1074 q 945 913 785 1074 q 1106 521 1106 751 q 945 133 1106 293 q 556 -28 785 -28 l 556 -28 m 556 103 q 854 219 733 101 q 975 521 975 338 q 854 825 975 707 q 556 943 733 943 q 256 825 375 943 q 136 521 136 707 q 256 219 136 338 q 556 101 375 101 l 556 103 m 681 485 l 819 243 l 681 243 l 553 485 l 464 485 l 464 243 l 336 243 l 336 815 l 614 815 q 774 783 713 814 q 836 639 836 753 q 797 524 836 560 q 681 483 757 489 l 681 485 m 464 571 l 617 571 q 691 585 665 569 q 717 656 717 601 q 687 701 717 690 q 622 714 657 713 q 604 714 613 714 q 588 714 596 714 l 464 715 l 464 571 l 464 571 z "},"©":{"ha":1111,"x_min":6,"x_max":1106,"o":"m 556 -28 q 165 133 325 -28 q 6 521 6 293 q 165 913 6 751 q 556 1074 325 1074 q 945 913 785 1074 q 1106 521 1106 751 q 945 133 1106 293 q 556 -28 785 -28 l 556 -28 m 556 103 q 854 219 733 101 q 975 521 975 338 q 854 825 975 707 q 556 943 733 943 q 256 825 375 943 q 136 521 136 707 q 256 219 136 338 q 556 101 375 101 l 556 103 m 836 638 l 711 638 q 665 713 703 688 q 575 738 626 738 q 449 674 493 738 q 404 529 404 611 q 404 524 404 526 q 404 518 404 521 q 455 379 408 442 q 579 317 501 317 q 668 345 628 317 q 711 424 708 374 l 836 425 q 750 267 825 324 q 579 210 675 210 q 357 302 440 210 q 274 526 274 394 q 354 754 274 664 q 576 844 435 844 q 747 790 675 844 q 836 636 819 735 l 836 638 z "},"™":{"ha":1306,"x_min":57,"x_max":1249,"o":"m 533 1047 l 533 939 l 363 939 l 363 486 l 228 486 l 228 939 l 57 939 l 57 1047 l 533 1047 l 533 1047 m 1249 1047 l 1249 486 l 1126 486 l 1126 939 l 1124 939 l 961 486 l 889 486 l 726 939 l 724 939 l 724 486 l 601 486 l 601 1047 l 799 1047 l 925 715 l 1051 1047 l 1249 1047 l 1249 1047 z "},"´":{"ha":558,"x_min":104,"x_max":454,"o":"m 454 1028 l 217 818 l 104 900 l 300 1139 l 454 1028 l 454 1028 z "},"¨":{"ha":839,"x_min":104,"x_max":733,"o":"m 242 1111 q 338 1070 299 1110 q 378 974 378 1031 q 338 877 378 917 q 242 838 299 838 q 144 877 185 838 q 104 974 104 917 q 144 1070 104 1031 q 242 1110 185 1110 l 242 1111 m 597 1111 q 694 1070 654 1110 q 733 974 733 1031 q 694 877 733 917 q 597 838 654 838 q 500 877 540 838 q 460 974 460 917 q 500 1070 460 1031 q 597 1110 540 1110 l 597 1111 z "},"≠":{"ha":476,"x_min":0,"x_max":0,"o":""},"Æ":{"ha":1425,"x_min":-6,"x_max":1425,"o":"m 794 0 l 726 182 l 347 182 l 282 0 l -6 0 l 399 1047 l 1040 1047 l 1125 817 l 781 817 l 844 642 l 1188 642 l 1275 411 l 929 411 l 997 231 l 1342 231 l 1425 0 l 794 0 l 794 0 m 653 390 l 540 701 l 422 390 l 653 390 l 653 390 z "},"Ø":{"ha":1232,"x_min":15,"x_max":1214,"o":"m 1214 988 l 1086 863 q 1103 836 1096 849 q 1119 811 1111 824 q 1176 683 1157 749 q 1194 540 1194 618 q 1027 124 1194 283 q 617 -35 860 -35 q 606 -35 611 -35 q 596 -35 601 -35 q 417 -3 506 -32 q 256 78 329 25 l 124 -46 l 15 68 l 144 192 q 65 349 93 267 q 36 540 36 431 q 201 924 36 768 q 610 1081 367 1081 q 673 1078 640 1081 q 739 1071 706 1076 q 866 1036 804 1060 q 974 971 928 1013 l 1107 1101 l 1214 988 l 1214 988 m 875 668 l 461 271 q 489 256 475 263 q 515 246 503 250 q 563 232 539 236 q 617 228 588 228 q 825 317 739 228 q 911 540 911 406 q 903 608 911 576 q 875 667 894 640 l 875 668 m 356 392 l 761 779 q 719 799 742 790 q 671 813 696 807 q 643 815 657 814 q 617 817 629 817 q 408 733 497 817 q 319 540 319 650 q 328 458 319 496 q 356 390 338 419 l 356 392 z "},"∞":{"ha":476,"x_min":0,"x_max":0,"o":""},"±":{"ha":953,"x_min":121,"x_max":832,"o":"m 121 208 l 832 208 l 832 0 l 121 0 l 121 208 l 121 208 m 372 711 l 372 908 l 581 908 l 581 711 l 832 711 l 832 503 l 581 503 l 581 306 l 372 306 l 372 503 l 121 503 l 121 711 l 372 711 l 372 711 z "},"≤":{"ha":476,"x_min":0,"x_max":0,"o":""},"≥":{"ha":476,"x_min":0,"x_max":0,"o":""},"¥":{"ha":953,"x_min":-15,"x_max":968,"o":"m 879 619 l 682 619 l 604 503 l 879 503 l 879 397 l 604 397 l 604 0 l 349 0 l 349 397 l 71 397 l 71 503 l 347 503 l 268 619 l 71 619 l 71 725 l 199 725 l -15 1047 l 293 1047 l 476 763 l 660 1047 l 968 1047 l 753 725 l 879 725 l 879 619 l 879 619 z "},"µ":{"ha":915,"x_min":79,"x_max":838,"o":"m 79 713 l 332 713 l 332 332 q 356 219 332 263 q 458 176 381 176 q 560 219 536 176 q 585 331 585 263 l 585 713 l 838 713 l 838 283 q 769 77 838 144 q 617 -10 700 10 q 564 -20 590 -17 q 514 -24 538 -24 q 417 -8 458 -24 q 349 28 375 8 q 340 35 344 32 q 332 43 336 39 l 332 -356 l 79 -356 l 79 713 l 79 713 z "},"∂":{"ha":476,"x_min":0,"x_max":0,"o":""},"Σ":{"ha":476,"x_min":0,"x_max":0,"o":""},"∏":{"ha":476,"x_min":0,"x_max":0,"o":""},"π":{"ha":476,"x_min":0,"x_max":0,"o":""},"∫":{"ha":476,"x_min":0,"x_max":0,"o":""},"ª":{"ha":568,"x_min":15,"x_max":554,"o":"m 554 438 l 15 438 l 15 542 l 554 542 l 554 438 l 554 438 m 390 633 l 390 681 l 388 681 q 334 635 368 650 q 263 618 300 621 q 256 618 260 618 q 249 618 253 618 q 81 686 146 618 q 15 846 15 754 q 80 1006 15 939 q 247 1074 144 1074 q 256 1074 251 1074 q 265 1072 261 1074 q 334 1056 301 1069 q 390 1018 367 1043 l 390 1061 l 554 1061 l 554 633 l 390 633 l 390 633 m 290 750 q 365 777 335 749 q 396 846 396 806 q 365 915 396 886 q 290 943 335 943 q 216 915 247 943 q 185 846 185 886 q 216 777 185 806 q 290 749 247 749 l 290 750 z "},"º":{"ha":569,"x_min":7,"x_max":564,"o":"m 564 438 l 7 438 l 7 542 l 564 542 l 564 438 l 564 438 m 285 1075 q 480 1015 396 1074 q 564 846 564 956 q 480 677 564 736 q 285 618 396 618 q 90 677 174 618 q 7 846 7 736 q 90 1015 7 956 q 285 1074 174 1074 l 285 1075 m 285 943 q 211 914 242 942 q 181 846 181 886 q 211 778 181 806 q 285 750 242 750 q 360 778 329 750 q 390 846 390 806 q 360 914 390 886 q 285 942 329 942 l 285 943 z "},"Ω":{"ha":476,"x_min":0,"x_max":0,"o":""},"æ":{"ha":1306,"x_min":29,"x_max":1275,"o":"m 1275 314 l 743 314 q 783 195 743 236 q 901 154 824 154 q 972 169 942 154 q 1022 219 1001 185 l 1265 221 q 1130 35 1235 93 q 903 -24 1025 -24 q 871 -23 888 -24 q 839 -19 854 -22 q 708 19 769 -11 q 617 115 646 50 q 488 13 565 50 q 328 -24 411 -24 q 299 -22 314 -24 q 269 -19 285 -21 q 104 49 179 -6 q 29 204 29 103 q 119 387 29 332 q 322 442 210 442 q 381 439 353 442 q 436 429 408 436 q 472 419 454 425 q 510 406 490 414 l 510 428 q 457 526 510 500 q 340 551 404 551 q 263 544 300 551 q 190 528 226 538 q 166 520 178 524 q 142 513 154 517 l 142 703 q 218 719 179 711 q 296 732 257 728 q 323 734 310 733 q 349 735 336 735 q 377 734 363 735 q 407 732 392 733 q 528 696 469 724 q 617 608 586 668 q 711 692 653 663 q 833 731 769 722 q 859 734 846 733 q 885 735 872 735 q 1173 628 1071 735 q 1275 339 1275 521 l 1275 314 l 1275 314 m 381 303 q 367 301 374 301 q 354 299 361 300 q 299 276 324 294 q 275 225 275 258 q 300 174 275 192 q 356 151 325 157 q 372 149 364 150 q 389 149 381 149 q 413 150 400 149 q 440 156 426 151 q 492 179 468 163 q 515 224 515 196 q 490 272 515 256 q 433 296 464 289 q 406 300 419 299 q 381 301 392 301 l 381 303 m 751 460 l 1044 460 q 994 540 1035 510 q 901 571 953 571 q 804 542 846 571 q 751 458 763 514 l 751 460 z "},"ø":{"ha":919,"x_min":-24,"x_max":950,"o":"m 178 60 l 44 -49 l -24 38 l 100 135 q 64 199 79 163 q 40 272 49 235 q 33 313 36 293 q 31 353 31 333 q 158 636 31 538 q 458 735 286 735 q 483 734 471 735 q 508 733 496 733 q 633 708 572 728 q 742 649 693 689 l 882 764 l 950 678 l 818 574 q 831 556 825 564 q 840 539 836 547 q 877 462 865 501 q 889 374 889 422 q 767 78 889 179 q 457 -24 646 -24 q 413 -22 435 -24 q 368 -17 390 -21 q 266 10 315 -8 q 178 58 217 28 l 178 60 m 611 415 l 372 222 q 413 201 392 207 q 456 194 433 194 q 572 240 524 194 q 619 354 619 286 q 617 385 619 369 q 611 414 615 400 l 611 415 m 308 292 l 550 492 q 539 498 544 494 q 528 504 533 501 q 499 513 514 511 q 464 515 483 515 q 346 470 394 515 q 297 356 297 425 q 300 322 297 339 q 308 290 303 306 l 308 292 z "},"¿":{"ha":826,"x_min":63,"x_max":806,"o":"m 568 358 l 568 89 q 540 92 554 90 q 510 94 525 94 q 489 94 500 94 q 468 90 478 93 q 374 47 417 81 q 331 -42 331 14 q 360 -115 331 -85 q 432 -146 389 -146 q 505 -115 481 -146 q 529 -40 529 -85 l 806 -40 q 688 -283 804 -199 q 425 -367 572 -367 q 297 -346 360 -367 q 182 -281 233 -325 q 97 -174 131 -237 q 63 -40 63 -110 q 135 151 63 76 q 314 258 208 225 l 314 358 l 568 358 l 568 358 m 436 739 q 551 690 504 738 q 599 575 599 643 q 551 460 599 508 q 436 413 504 413 q 321 460 368 413 q 274 575 274 508 q 321 690 274 643 q 436 738 368 738 l 436 739 z "},"¡":{"ha":533,"x_min":104,"x_max":429,"o":"m 136 354 l 399 354 l 399 -337 l 136 -337 l 136 354 l 136 354 m 267 739 q 382 690 335 738 q 429 575 429 643 q 382 460 429 508 q 267 413 335 413 q 151 460 199 413 q 104 575 104 508 q 151 690 104 643 q 267 738 199 738 l 267 739 z "},"¬":{"ha":476,"x_min":0,"x_max":0,"o":""},"√":{"ha":476,"x_min":0,"x_max":0,"o":""},"ƒ":{"ha":953,"x_min":-8,"x_max":919,"o":"m 654 701 l 807 701 l 789 596 l 636 596 l 565 208 q 527 36 550 118 q 447 -118 504 -46 q 326 -221 392 -189 q 179 -253 261 -253 q 160 -253 169 -253 q 139 -251 150 -253 l -8 -239 l 33 -10 q 42 -12 38 -11 q 50 -12 46 -12 q 90 -19 69 -17 q 132 -22 111 -22 q 220 -1 188 -22 q 275 71 253 19 q 292 123 285 94 q 306 181 299 151 q 314 227 310 204 q 322 271 318 250 l 381 596 l 261 596 l 278 701 l 400 701 l 428 851 q 456 960 439 910 q 514 1056 472 1010 q 615 1128 558 1106 q 739 1151 672 1151 q 756 1151 747 1151 q 774 1150 764 1151 q 850 1137 813 1147 q 919 1104 888 1126 l 879 888 q 840 910 861 899 q 796 925 818 921 q 784 927 790 926 q 771 928 778 928 q 706 896 725 928 q 678 825 686 864 q 672 800 675 813 q 668 776 669 788 l 654 701 l 654 701 z "},"≈":{"ha":476,"x_min":0,"x_max":0,"o":""},"∆":{"ha":476,"x_min":0,"x_max":0,"o":""},"«":{"ha":838,"x_min":36,"x_max":764,"o":"m 239 444 l 418 203 l 275 103 l 36 444 l 275 786 l 414 690 l 239 444 l 239 444 m 585 444 l 764 203 l 621 103 l 382 444 l 621 786 l 760 690 l 585 444 l 585 444 z "},"»":{"ha":838,"x_min":74,"x_max":801,"o":"m 74 203 l 253 444 l 78 690 l 217 786 l 456 444 l 217 103 l 74 203 l 74 203 m 419 203 l 599 444 l 424 690 l 563 786 l 801 444 l 563 103 l 419 203 l 419 203 z "},"…":{"ha":1389,"x_min":69,"x_max":1319,"o":"m 232 297 q 347 249 300 296 q 394 133 394 201 q 347 19 394 67 q 232 -28 300 -28 q 117 19 164 -28 q 69 133 69 67 q 117 249 69 201 q 232 296 164 296 l 232 297 m 694 297 q 810 249 763 296 q 857 133 857 201 q 810 19 857 67 q 694 -28 763 -28 q 579 19 626 -28 q 532 133 532 67 q 579 249 532 201 q 694 296 626 296 l 694 297 m 1157 297 q 1272 249 1225 296 q 1319 133 1319 201 q 1272 19 1319 67 q 1157 -28 1225 -28 q 1042 19 1089 -28 q 994 133 994 67 q 1042 249 994 201 q 1157 296 1089 296 l 1157 297 z "},"À":{"ha":1085,"x_min":-6,"x_max":1089,"o":"m 731 182 l 356 182 l 283 0 l -6 0 l 397 1047 l 694 1047 l 1089 0 l 799 0 l 731 182 l 731 182 m 657 390 l 546 724 l 543 724 l 431 390 l 657 390 l 657 390 m 368 1363 l 522 1474 l 718 1235 l 606 1153 l 368 1363 l 368 1363 z "},"Ã":{"ha":1085,"x_min":-6,"x_max":1089,"o":"m 731 182 l 356 182 l 283 0 l -6 0 l 397 1047 l 694 1047 l 1089 0 l 799 0 l 731 182 l 731 182 m 657 390 l 546 724 l 543 724 l 431 390 l 657 390 l 657 390 m 381 1190 l 267 1190 l 265 1206 q 272 1269 265 1238 q 296 1328 279 1300 q 348 1383 315 1360 q 419 1406 381 1406 q 465 1401 440 1406 q 513 1389 489 1396 q 526 1385 519 1388 q 539 1382 532 1383 q 597 1366 569 1374 q 646 1358 625 1358 q 681 1371 671 1358 q 700 1404 692 1383 q 701 1406 700 1406 q 701 1408 701 1407 l 819 1410 q 817 1387 818 1397 q 814 1365 815 1376 q 758 1244 800 1300 q 639 1189 715 1189 q 607 1192 624 1189 q 575 1200 590 1194 q 553 1207 564 1203 q 532 1215 542 1211 q 478 1232 504 1224 q 428 1240 453 1240 q 397 1227 406 1240 q 383 1196 389 1214 q 381 1192 382 1194 q 381 1189 381 1190 l 381 1190 z "},"Õ":{"ha":1232,"x_min":36,"x_max":1194,"o":"m 615 1082 q 1018 930 842 1081 q 1194 542 1194 779 q 1031 126 1194 288 q 615 -35 868 -35 q 200 126 364 -35 q 36 542 36 288 q 213 930 36 779 q 615 1081 389 1081 l 615 1082 m 615 818 q 406 733 493 817 q 319 540 319 649 q 406 317 319 406 q 615 228 493 228 q 824 317 738 228 q 911 540 911 406 q 824 733 911 649 q 615 817 738 817 l 615 818 m 454 1190 l 340 1190 l 339 1206 q 346 1269 339 1238 q 369 1328 353 1300 q 422 1383 389 1360 q 493 1406 454 1406 q 538 1401 514 1406 q 586 1389 563 1396 q 599 1385 593 1388 q 613 1382 606 1383 q 671 1366 643 1374 q 719 1358 699 1358 q 755 1371 744 1358 q 774 1404 765 1383 q 774 1406 774 1406 q 775 1408 775 1407 l 893 1410 q 890 1387 892 1397 q 888 1365 889 1376 q 831 1244 874 1300 q 713 1189 789 1189 q 681 1192 697 1189 q 649 1200 664 1194 q 626 1207 638 1203 q 606 1215 615 1211 q 552 1232 578 1224 q 501 1240 526 1240 q 471 1227 479 1240 q 457 1196 463 1214 q 455 1192 456 1194 q 454 1189 454 1190 l 454 1190 z "},"Œ":{"ha":1583,"x_min":36,"x_max":1506,"o":"m 917 0 l 917 115 q 765 1 846 38 q 583 -35 685 -35 q 197 133 358 -35 q 36 522 36 300 q 197 913 36 746 q 583 1081 358 1081 q 768 1048 685 1081 q 917 950 851 1015 l 917 1047 l 1506 1047 l 1506 817 l 1188 817 l 1188 642 l 1483 642 l 1483 411 l 1188 411 l 1188 231 l 1506 231 l 1506 0 l 917 0 l 917 0 m 613 818 q 406 731 492 817 q 319 522 319 644 q 406 315 319 401 q 613 228 492 228 q 819 315 735 228 q 904 522 904 401 q 819 731 904 644 q 613 817 735 817 l 613 818 z "},"œ":{"ha":1419,"x_min":29,"x_max":1390,"o":"m 1390 340 l 1390 314 l 858 314 q 899 195 858 236 q 1017 154 939 154 q 1087 169 1057 154 q 1138 219 1117 185 l 1381 221 q 1245 35 1350 93 q 1018 -24 1140 -24 q 851 3 924 -24 q 729 99 778 31 q 601 3 668 31 q 440 -24 533 -24 q 147 74 265 -24 q 29 354 29 171 q 147 634 29 533 q 438 735 265 735 q 596 712 526 735 q 729 628 665 689 q 824 701 767 678 q 943 732 882 725 q 972 734 957 733 q 1000 735 986 735 q 1288 628 1186 735 q 1390 339 1390 521 l 1390 340 m 458 517 q 344 467 392 515 q 296 354 296 419 q 344 240 296 286 q 458 194 392 194 q 573 240 525 194 q 621 354 621 286 q 573 467 621 419 q 458 515 525 515 l 458 517 m 858 460 l 1151 460 q 1101 540 1142 510 q 1008 571 1060 571 q 911 542 953 571 q 858 458 869 514 l 858 460 z "},"—":{"ha":1389,"x_min":0,"x_max":1389,"o":"m 0 550 l 1389 550 l 1389 342 l 0 342 l 0 550 l 0 550 z "},"“":{"ha":872,"x_min":26,"x_max":799,"o":"m 263 588 l 26 588 l 282 1047 l 443 1047 l 263 588 l 263 588 m 618 588 l 382 588 l 638 1047 l 799 1047 l 618 588 l 618 588 z "},"”":{"ha":872,"x_min":74,"x_max":846,"o":"m 254 1047 l 490 1047 l 235 588 l 74 588 l 254 1047 l 254 1047 m 610 1047 l 846 1047 l 590 588 l 429 588 l 610 1047 l 610 1047 z "},"‘":{"ha":517,"x_min":26,"x_max":443,"o":"m 263 588 l 26 588 l 282 1047 l 443 1047 l 263 588 l 263 588 z "},"’":{"ha":517,"x_min":74,"x_max":490,"o":"m 254 1047 l 490 1047 l 235 588 l 74 588 l 254 1047 l 254 1047 z "},"÷":{"ha":476,"x_min":0,"x_max":0,"o":""},"◊":{"ha":476,"x_min":0,"x_max":0,"o":""},"ÿ":{"ha":908,"x_min":-21,"x_max":935,"o":"m 324 97 l -21 713 l 271 713 l 461 347 l 647 713 l 935 713 l 364 -356 l 81 -356 l 324 97 l 324 97 m 276 1111 q 373 1070 333 1110 q 413 974 413 1031 q 373 877 413 917 q 276 838 333 838 q 179 877 219 838 q 139 974 139 917 q 179 1070 139 1031 q 276 1110 219 1110 l 276 1111 m 632 1111 q 728 1070 689 1110 q 768 974 768 1031 q 728 877 768 917 q 632 838 689 838 q 535 877 575 838 q 494 974 494 917 q 535 1070 494 1031 q 632 1110 575 1110 l 632 1111 z "},"Ÿ":{"ha":992,"x_min":-26,"x_max":1018,"o":"m 360 503 l -26 1047 l 300 1047 l 496 763 l 692 1047 l 1018 1047 l 632 503 l 632 0 l 360 0 l 360 503 l 360 503 m 318 1446 q 415 1405 375 1444 q 454 1308 454 1365 q 415 1212 454 1251 q 318 1172 375 1172 q 221 1212 261 1172 q 181 1308 181 1251 q 221 1405 181 1365 q 318 1444 261 1444 l 318 1446 m 674 1446 q 770 1405 731 1444 q 810 1308 810 1365 q 770 1212 810 1251 q 674 1172 731 1172 q 576 1212 617 1172 q 536 1308 536 1251 q 576 1405 536 1365 q 674 1444 617 1444 l 674 1446 z "},"∕":{"ha":269,"x_min":-237,"x_max":507,"o":"m 371 1047 l 507 1047 l -101 0 l -237 0 l 371 1047 l 371 1047 z "},"¤":{"ha":953,"x_min":68,"x_max":885,"o":"m 68 211 l 160 303 q 109 402 128 344 q 90 524 90 460 q 90 529 90 526 q 90 535 90 532 q 109 654 92 596 q 160 753 126 713 l 68 847 l 154 935 l 247 842 q 344 890 288 871 q 458 913 400 908 q 469 913 464 913 q 481 913 475 913 q 604 893 544 913 q 703 840 664 874 l 796 935 l 882 849 l 796 761 q 848 658 828 717 q 871 539 868 600 q 871 533 871 536 q 871 526 871 529 q 850 403 871 463 q 793 303 829 343 l 885 213 l 801 122 l 708 214 q 606 158 667 178 q 481 138 546 138 q 351 157 413 138 q 246 214 290 176 l 154 124 l 68 211 l 68 211 m 481 706 q 351 651 403 704 q 299 519 299 597 q 351 393 299 440 q 481 346 404 346 q 610 393 558 346 q 663 519 663 440 q 610 651 663 597 q 481 704 558 704 l 481 706 z "},"‹":{"ha":492,"x_min":36,"x_max":418,"o":"m 239 444 l 418 203 l 275 103 l 36 444 l 275 786 l 414 690 l 239 444 l 239 444 z "},"›":{"ha":492,"x_min":74,"x_max":456,"o":"m 74 203 l 253 444 l 78 690 l 217 786 l 456 444 l 217 103 l 74 203 l 74 203 z "},"":{"ha":943,"x_min":11,"x_max":875,"o":"m 353 504 l 353 0 l 100 0 l 100 504 l 11 504 l 11 713 l 100 713 l 100 803 q 106 908 100 860 q 138 1003 111 957 q 153 1027 144 1015 q 172 1051 161 1039 q 284 1136 219 1107 q 421 1165 349 1165 q 476 1160 450 1165 q 529 1140 503 1154 l 529 924 q 517 928 524 925 q 504 932 511 931 q 474 942 489 939 q 440 946 458 946 q 372 917 392 946 q 353 826 353 888 l 353 713 l 529 713 l 529 504 l 353 504 l 353 504 m 860 713 l 860 0 l 607 0 l 607 713 l 860 713 l 860 713 m 733 1128 q 833 1085 792 1126 q 875 985 875 1043 q 833 885 875 926 q 733 843 792 843 q 633 885 675 843 q 592 985 592 926 q 633 1085 592 1043 q 733 1126 675 1126 l 733 1128 z "},"":{"ha":958,"x_min":11,"x_max":875,"o":"m 353 504 l 353 0 l 100 0 l 100 504 l 11 504 l 11 713 l 100 713 l 100 803 q 106 908 100 860 q 138 1003 111 957 q 153 1027 144 1015 q 172 1051 161 1039 q 284 1136 219 1107 q 421 1165 349 1165 q 476 1160 450 1165 q 529 1140 503 1154 l 529 924 q 517 928 524 925 q 504 932 511 931 q 474 942 489 939 q 440 946 458 946 q 372 917 392 946 q 353 826 353 888 l 353 713 l 529 713 l 529 504 l 353 504 l 353 504 m 875 1153 l 875 0 l 622 0 l 622 1153 l 875 1153 l 875 1153 z "},"‡":{"ha":953,"x_min":117,"x_max":838,"o":"m 363 1047 l 593 1047 l 593 790 l 838 790 l 838 590 l 593 590 l 593 393 l 838 393 l 838 193 l 593 193 l 593 -249 l 363 -249 l 363 193 l 117 193 l 117 393 l 363 393 l 363 590 l 117 590 l 117 790 l 363 790 l 363 1047 l 363 1047 z "},"∙":{"ha":476,"x_min":76,"x_max":401,"o":"m 239 518 q 354 469 307 517 q 401 354 401 422 q 354 240 401 288 q 239 192 307 192 q 124 240 171 192 q 76 354 76 288 q 124 469 76 422 q 239 517 171 517 l 239 518 z "},"‚":{"ha":476,"x_min":0,"x_max":0,"o":""},"„":{"ha":825,"x_min":26,"x_max":799,"o":"m 207 265 l 443 265 l 188 -194 l 26 -194 l 207 265 l 207 265 m 563 265 l 799 265 l 543 -194 l 382 -194 l 563 265 l 563 265 z "},"‰":{"ha":2028,"x_min":26,"x_max":2001,"o":"m 1042 499 q 1243 433 1158 497 q 1328 243 1328 368 q 1244 51 1328 117 q 1042 -14 1161 -14 q 839 51 922 -14 q 756 243 756 117 q 840 433 756 368 q 1042 497 925 497 l 1042 499 m 1042 360 q 958 324 993 358 q 924 240 924 289 q 958 158 924 192 q 1042 124 993 124 q 1125 158 1090 124 q 1160 240 1160 192 q 1125 324 1160 289 q 1042 358 1090 358 l 1042 360 m 1715 499 q 1917 433 1832 497 q 2001 243 2001 368 q 1918 51 2001 117 q 1715 -14 1835 -14 q 1513 51 1596 -14 q 1429 243 1429 117 q 1514 433 1429 368 q 1715 497 1599 497 l 1715 499 m 1715 360 q 1632 324 1667 358 q 1597 240 1597 289 q 1632 158 1597 192 q 1715 124 1667 124 q 1799 158 1764 124 q 1833 240 1833 192 q 1799 324 1833 289 q 1715 358 1764 358 l 1715 360 m 913 1047 l 1049 1047 l 440 0 l 304 0 l 913 1047 l 913 1047 m 313 1061 q 514 995 429 1060 q 599 806 599 931 q 515 613 599 679 q 313 547 432 547 q 110 613 193 547 q 26 806 26 679 q 111 995 26 931 q 313 1060 196 1060 l 313 1061 m 313 922 q 229 886 264 921 q 194 803 194 851 q 229 720 194 754 q 313 686 264 686 q 396 720 361 686 q 431 803 431 754 q 396 886 431 851 q 313 921 361 921 l 313 922 z "},"Â":{"ha":1085,"x_min":-6,"x_max":1089,"o":"m 731 182 l 356 182 l 283 0 l -6 0 l 397 1047 l 694 1047 l 1089 0 l 799 0 l 731 182 l 731 182 m 657 390 l 546 724 l 543 724 l 431 390 l 657 390 l 657 390 m 238 1258 l 540 1486 l 847 1258 l 740 1142 l 540 1296 l 340 1142 l 238 1258 l 238 1258 z "},"Ê":{"ha":764,"x_min":76,"x_max":686,"o":"m 685 817 l 361 817 l 361 642 l 668 642 l 668 411 l 361 411 l 361 231 l 685 231 l 685 0 l 89 0 l 89 1047 l 685 1047 l 685 817 l 685 817 m 76 1258 l 379 1486 l 686 1258 l 579 1142 l 379 1296 l 179 1142 l 76 1258 l 76 1258 z "},"Á":{"ha":1085,"x_min":-6,"x_max":1089,"o":"m 731 182 l 356 182 l 283 0 l -6 0 l 397 1047 l 694 1047 l 1089 0 l 799 0 l 731 182 l 731 182 m 657 390 l 546 724 l 543 724 l 431 390 l 657 390 l 657 390 m 718 1363 l 481 1153 l 368 1235 l 564 1474 l 718 1363 l 718 1363 z "},"Ë":{"ha":764,"x_min":67,"x_max":696,"o":"m 685 817 l 361 817 l 361 642 l 668 642 l 668 411 l 361 411 l 361 231 l 685 231 l 685 0 l 89 0 l 89 1047 l 685 1047 l 685 817 l 685 817 m 204 1446 q 301 1405 261 1444 q 340 1308 340 1365 q 301 1212 340 1251 q 204 1172 261 1172 q 107 1212 147 1172 q 67 1308 67 1251 q 107 1405 67 1365 q 204 1444 147 1444 l 204 1446 m 560 1446 q 656 1405 617 1444 q 696 1308 696 1365 q 656 1212 696 1251 q 560 1172 617 1172 q 463 1212 503 1172 q 422 1308 422 1251 q 463 1405 422 1365 q 560 1444 503 1444 l 560 1446 z "},"È":{"ha":764,"x_min":89,"x_max":685,"o":"m 685 817 l 361 817 l 361 642 l 668 642 l 668 411 l 361 411 l 361 231 l 685 231 l 685 0 l 89 0 l 89 1047 l 685 1047 l 685 817 l 685 817 m 207 1363 l 361 1474 l 557 1235 l 444 1153 l 207 1363 l 207 1363 z "},"Í":{"ha":450,"x_min":50,"x_max":400,"o":"m 361 1047 l 361 0 l 89 0 l 89 1047 l 361 1047 l 361 1047 m 400 1363 l 163 1153 l 50 1235 l 246 1474 l 400 1363 l 400 1363 z "},"Î":{"ha":450,"x_min":-81,"x_max":529,"o":"m 361 1047 l 361 0 l 89 0 l 89 1047 l 361 1047 l 361 1047 m -81 1258 l 222 1486 l 529 1258 l 422 1142 l 222 1296 l 22 1142 l -81 1258 l -81 1258 z "},"Ï":{"ha":450,"x_min":-89,"x_max":539,"o":"m 361 1047 l 361 0 l 89 0 l 89 1047 l 361 1047 l 361 1047 m 47 1446 q 144 1405 104 1444 q 183 1308 183 1365 q 144 1212 183 1251 q 47 1172 104 1172 q -49 1212 -8 1172 q -89 1308 -89 1251 q -49 1405 -89 1365 q 47 1444 -8 1444 l 47 1446 m 403 1446 q 499 1405 460 1444 q 539 1308 539 1365 q 499 1212 539 1251 q 403 1172 460 1172 q 306 1212 346 1172 q 265 1308 265 1251 q 306 1405 265 1365 q 403 1444 346 1444 l 403 1446 z "},"Ì":{"ha":450,"x_min":50,"x_max":400,"o":"m 361 1047 l 361 0 l 89 0 l 89 1047 l 361 1047 l 361 1047 m 50 1363 l 204 1474 l 400 1235 l 288 1153 l 50 1363 l 50 1363 z "},"Ó":{"ha":1232,"x_min":36,"x_max":1194,"o":"m 615 1082 q 1018 930 842 1081 q 1194 542 1194 779 q 1031 126 1194 288 q 615 -35 868 -35 q 200 126 364 -35 q 36 542 36 288 q 213 930 36 779 q 615 1081 389 1081 l 615 1082 m 615 818 q 406 733 493 817 q 319 540 319 649 q 406 317 319 406 q 615 228 493 228 q 824 317 738 228 q 911 540 911 406 q 824 733 911 649 q 615 817 738 817 l 615 818 m 792 1363 l 554 1153 l 442 1235 l 638 1474 l 792 1363 l 792 1363 z "},"Ô":{"ha":1232,"x_min":36,"x_max":1194,"o":"m 615 1082 q 1018 930 842 1081 q 1194 542 1194 779 q 1031 126 1194 288 q 615 -35 868 -35 q 200 126 364 -35 q 36 542 36 288 q 213 930 36 779 q 615 1081 389 1081 l 615 1082 m 615 818 q 406 733 493 817 q 319 540 319 649 q 406 317 319 406 q 615 228 493 228 q 824 317 738 228 q 911 540 911 406 q 824 733 911 649 q 615 817 738 817 l 615 818 m 311 1258 l 614 1486 l 921 1258 l 814 1142 l 614 1296 l 414 1142 l 311 1258 l 311 1258 z "},"":{"ha":476,"x_min":0,"x_max":0,"o":""},"Ò":{"ha":476,"x_min":0,"x_max":0,"o":""},"Ú":{"ha":1081,"x_min":83,"x_max":997,"o":"m 725 1047 l 997 1047 l 997 458 q 981 260 997 356 q 888 88 965 164 q 769 12 838 38 q 628 -22 700 -14 q 583 -26 606 -25 q 540 -28 561 -28 q 497 -26 519 -28 q 453 -22 475 -25 q 312 12 381 -14 q 193 88 243 38 q 99 260 115 164 q 83 457 83 356 l 83 1047 l 356 1047 l 356 496 q 356 478 356 486 q 356 463 356 471 q 388 289 357 368 q 540 210 419 210 q 692 289 661 210 q 725 463 724 368 q 725 478 725 471 q 725 494 725 486 l 725 1047 l 725 1047 m 715 1363 l 478 1153 l 365 1235 l 561 1474 l 715 1363 l 715 1363 z "},"Û":{"ha":1081,"x_min":83,"x_max":997,"o":"m 725 1047 l 997 1047 l 997 458 q 981 260 997 356 q 888 88 965 164 q 769 12 838 38 q 628 -22 700 -14 q 583 -26 606 -25 q 540 -28 561 -28 q 497 -26 519 -28 q 453 -22 475 -25 q 312 12 381 -14 q 193 88 243 38 q 99 260 115 164 q 83 457 83 356 l 83 1047 l 356 1047 l 356 496 q 356 478 356 486 q 356 463 356 471 q 388 289 357 368 q 540 210 419 210 q 692 289 661 210 q 725 463 724 368 q 725 478 725 471 q 725 494 725 486 l 725 1047 l 725 1047 m 235 1258 l 538 1486 l 844 1258 l 738 1142 l 538 1296 l 338 1142 l 235 1258 l 235 1258 z "},"Ù":{"ha":1081,"x_min":83,"x_max":997,"o":"m 725 1047 l 997 1047 l 997 458 q 981 260 997 356 q 888 88 965 164 q 769 12 838 38 q 628 -22 700 -14 q 583 -26 606 -25 q 540 -28 561 -28 q 497 -26 519 -28 q 453 -22 475 -25 q 312 12 381 -14 q 193 88 243 38 q 99 260 115 164 q 83 457 83 356 l 83 1047 l 356 1047 l 356 496 q 356 478 356 486 q 356 463 356 471 q 388 289 357 368 q 540 210 419 210 q 692 289 661 210 q 725 463 724 368 q 725 478 725 471 q 725 494 725 486 l 725 1047 l 725 1047 m 365 1363 l 519 1474 l 715 1235 l 603 1153 l 365 1363 l 365 1363 z "},"ı":{"ha":419,"x_min":83,"x_max":336,"o":"m 336 713 l 336 0 l 83 0 l 83 713 l 336 713 l 336 713 z "},"˜":{"ha":819,"x_min":104,"x_max":714,"o":"m 104 924 l 407 1151 l 714 924 l 607 807 l 407 961 l 207 807 l 104 924 l 104 924 z "},"ˆ":{"ha":763,"x_min":104,"x_max":658,"o":"m 219 856 l 106 856 l 104 871 q 111 934 104 903 q 135 993 118 965 q 187 1048 154 1025 q 258 1071 219 1071 q 303 1066 279 1071 q 351 1054 328 1061 q 365 1051 358 1053 q 378 1047 371 1049 q 436 1031 408 1039 q 485 1024 464 1024 q 520 1036 510 1024 q 539 1069 531 1049 q 540 1072 539 1071 q 540 1074 540 1072 l 658 1075 q 656 1052 657 1063 q 653 1031 654 1042 q 597 910 639 965 q 478 854 554 854 q 446 857 463 854 q 414 865 429 860 q 392 872 403 868 q 371 881 381 876 q 317 897 343 889 q 267 906 292 906 q 236 892 244 906 q 222 861 228 879 q 220 858 221 860 q 219 854 219 856 l 219 856 z "},"ˉ":{"ha":838,"x_min":104,"x_max":732,"o":"m 104 1044 l 732 1044 l 732 896 l 104 896 l 104 1044 l 104 1044 z "},"˘":{"ha":749,"x_min":104,"x_max":643,"o":"m 104 1089 l 260 1089 q 298 1019 267 1043 q 374 994 329 994 q 451 1019 419 994 q 489 1088 482 1043 l 643 1089 q 561 913 638 974 q 374 853 485 853 q 187 913 263 853 q 104 1088 111 974 l 104 1089 z "},"˙":{"ha":558,"x_min":143,"x_max":417,"o":"m 281 1111 q 377 1070 338 1110 q 417 974 417 1031 q 377 877 417 917 q 281 838 338 838 q 183 877 224 838 q 143 974 143 917 q 183 1070 143 1031 q 281 1110 224 1110 l 281 1111 z "},"˚":{"ha":635,"x_min":104,"x_max":531,"o":"m 315 1132 q 324 1131 319 1131 q 333 1131 329 1131 q 469 1091 407 1126 q 531 971 531 1056 q 469 850 531 886 q 335 811 408 814 q 327 811 331 811 q 319 811 324 811 q 308 811 314 811 q 294 813 301 811 q 164 851 224 817 q 104 969 104 886 q 167 1093 104 1057 q 307 1131 231 1129 q 312 1131 310 1131 q 315 1131 314 1131 l 315 1132 m 318 1032 q 313 1031 315 1031 q 308 1031 310 1031 q 258 1015 281 1028 q 236 971 236 1001 q 258 927 236 940 q 308 911 281 914 q 313 911 310 911 q 318 911 315 911 q 324 911 321 911 q 331 911 328 911 q 378 928 357 914 q 399 971 399 942 q 378 1014 399 1000 q 331 1031 357 1028 q 324 1031 328 1031 q 318 1031 321 1031 l 318 1032 z "},"¸":{"ha":528,"x_min":104,"x_max":422,"o":"m 422 -131 l 213 -329 l 104 -261 l 285 -42 l 422 -131 l 422 -131 z "},"ʺ":{"ha":749,"x_min":154,"x_max":594,"o":"m 353 1131 l 283 833 l 154 833 l 174 1131 l 353 1131 l 353 1131 m 594 1131 l 525 833 l 396 833 l 415 1131 l 594 1131 l 594 1131 z "},"˛":{"ha":486,"x_min":104,"x_max":381,"o":"m 221 0 l 325 0 l 325 -3 q 313 -10 319 -6 q 300 -18 307 -14 q 260 -57 278 -35 q 242 -106 242 -79 q 260 -151 242 -132 q 306 -169 279 -169 q 344 -162 326 -169 q 381 -143 363 -154 l 350 -271 q 320 -285 338 -279 q 286 -293 303 -290 q 262 -296 274 -294 q 239 -297 250 -297 q 233 -297 236 -297 q 228 -297 231 -297 q 143 -260 182 -293 q 104 -178 104 -226 q 139 -74 104 -121 q 221 0 174 -28 l 221 0 z "},"ˇ":{"ha":819,"x_min":104,"x_max":714,"o":"m 104 1033 l 207 1151 l 407 996 l 607 1151 l 714 1033 l 407 807 l 104 1033 l 104 1033 z "},"Ł":{"ha":740,"x_min":26,"x_max":738,"o":"m 411 1047 l 411 786 l 571 901 l 571 674 l 411 565 l 411 231 l 738 231 l 738 0 l 139 0 l 139 414 l 26 331 l 26 553 l 139 635 l 139 1047 l 411 1047 l 411 1047 z "},"ł":{"ha":508,"x_min":11,"x_max":497,"o":"m 379 1153 l 379 736 l 497 819 l 497 590 l 379 513 l 379 0 l 126 0 l 126 375 l 11 293 l 11 521 l 126 599 l 126 1153 l 379 1153 l 379 1153 z "},"Š":{"ha":856,"x_min":42,"x_max":815,"o":"m 772 989 l 664 778 q 580 827 626 808 q 483 846 533 846 q 468 845 476 846 q 451 842 460 844 q 393 814 419 835 q 367 758 367 793 q 392 705 367 725 q 446 672 417 685 q 467 665 457 668 q 488 658 478 661 l 557 639 q 741 542 667 606 q 815 351 815 479 q 815 340 815 346 q 815 329 815 335 q 789 188 813 257 q 707 69 765 119 q 588 1 654 24 q 451 -26 521 -21 q 430 -27 440 -26 q 410 -28 419 -28 q 217 3 311 -28 q 42 90 122 35 l 158 311 q 270 233 210 265 q 400 201 331 201 q 406 201 403 201 q 411 201 408 201 q 494 230 457 204 q 532 307 532 256 q 501 369 532 346 q 431 407 469 393 q 397 417 414 413 q 367 426 381 422 q 360 428 364 428 q 354 431 357 429 q 157 519 231 465 q 83 722 83 574 q 185 978 83 882 q 444 1074 288 1074 q 510 1070 476 1074 q 576 1058 543 1067 q 680 1029 629 1047 q 772 988 731 1011 l 772 989 m 122 1368 l 225 1486 l 425 1331 l 625 1486 l 732 1368 l 425 1142 l 122 1368 l 122 1368 z "},"š":{"ha":713,"x_min":36,"x_max":661,"o":"m 639 690 l 554 529 q 517 544 538 538 q 476 556 497 551 q 447 560 461 558 q 418 563 432 563 q 403 562 411 563 q 389 558 396 561 q 354 544 369 554 q 339 514 339 533 q 359 478 339 490 q 404 461 379 467 q 431 455 418 457 q 453 451 443 453 q 601 386 542 433 q 660 240 660 339 q 560 42 660 104 q 339 -24 460 -19 q 331 -24 335 -24 q 324 -24 328 -24 q 174 -3 247 -24 q 36 57 101 18 l 128 235 q 182 202 151 217 q 244 176 213 188 q 288 165 267 169 q 328 161 308 161 q 340 162 333 161 q 353 164 346 163 q 390 181 374 168 q 407 215 407 193 q 378 259 407 246 q 308 281 349 272 q 278 287 293 283 q 249 294 264 290 q 140 348 189 310 q 90 482 90 386 q 186 672 90 611 q 396 735 282 733 q 401 735 399 735 q 404 735 403 735 q 524 724 465 735 q 639 689 583 714 l 639 690 m 51 1033 l 154 1151 l 354 996 l 554 1151 l 661 1033 l 354 807 l 51 1033 l 51 1033 z "},"Ž":{"ha":476,"x_min":0,"x_max":0,"o":""},"ž":{"ha":476,"x_min":0,"x_max":0,"o":""},"¦":{"ha":476,"x_min":0,"x_max":0,"o":""},"Ð":{"ha":1044,"x_min":-28,"x_max":1007,"o":"m 89 0 l 89 429 l -28 429 l -28 643 l 89 643 l 89 1047 l 475 1047 q 851 894 694 1046 q 1007 522 1007 743 q 850 151 1007 301 q 475 0 693 0 l 89 0 l 89 0 m 361 817 l 361 643 l 514 643 l 514 429 l 361 429 l 361 231 l 422 231 q 634 299 544 229 q 724 522 724 369 q 640 739 724 663 q 425 815 557 815 l 361 817 l 361 817 z "},"ð":{"ha":919,"x_min":-3,"x_max":861,"o":"m 574 1069 l 436 978 l 533 900 q 635 810 586 856 q 722 713 683 764 q 730 703 726 708 q 736 694 733 699 q 822 556 783 633 q 861 354 861 478 q 860 332 861 343 q 857 308 860 321 q 728 80 839 183 q 460 -24 617 -24 q 160 74 289 -24 q 31 354 31 172 q 93 558 31 478 q 231 679 156 638 q 301 710 267 699 q 364 726 336 722 q 385 735 379 729 q 392 749 392 740 q 381 774 392 760 q 356 806 371 789 q 338 822 347 814 q 318 839 328 831 q 292 859 306 850 q 269 874 279 868 l 107 757 l 0 839 l 156 944 l -3 1042 l 83 1153 q 199 1106 142 1131 q 311 1049 257 1081 l 464 1153 l 574 1069 l 574 1069 m 460 517 q 345 467 393 515 q 297 354 297 419 q 345 240 297 286 q 460 194 393 194 q 567 240 526 194 q 608 354 608 286 q 567 467 608 419 q 460 515 526 515 l 460 517 z "},"Ý":{"ha":476,"x_min":0,"x_max":0,"o":""},"ý":{"ha":476,"x_min":0,"x_max":0,"o":""},"Þ":{"ha":918,"x_min":89,"x_max":886,"o":"m 89 0 l 89 1047 l 361 1047 l 361 881 l 506 881 q 781 797 675 879 q 886 535 886 715 q 790 265 886 350 q 515 179 693 179 l 361 181 l 361 0 l 89 0 l 89 0 m 361 661 l 361 400 l 407 400 q 542 415 481 399 q 603 526 603 431 q 544 642 603 625 q 407 660 486 660 l 361 661 l 361 661 z "},"þ":{"ha":947,"x_min":83,"x_max":914,"o":"m 336 1153 l 336 632 l 339 632 q 425 706 371 681 q 538 735 479 732 q 546 735 542 735 q 554 735 550 735 q 814 620 714 735 q 914 353 914 506 q 815 88 914 199 q 557 -24 715 -24 q 547 -24 551 -24 q 536 -24 542 -24 q 427 2 481 -19 q 336 67 374 24 l 336 -356 l 83 -356 l 83 1153 l 336 1153 l 336 1153 m 490 517 q 376 467 424 515 q 328 354 328 419 q 376 240 328 286 q 490 194 424 194 q 605 240 557 194 q 653 354 653 286 q 605 467 653 419 q 490 515 557 515 l 490 517 z "},"−":{"ha":476,"x_min":0,"x_max":0,"o":""},"×":{"ha":476,"x_min":0,"x_max":0,"o":""},"¹":{"ha":476,"x_min":0,"x_max":0,"o":""},"²":{"ha":476,"x_min":0,"x_max":0,"o":""},"³":{"ha":476,"x_min":0,"x_max":0,"o":""},"½":{"ha":1429,"x_min":139,"x_max":1290,"o":"m 857 1047 l 993 1047 l 385 0 l 249 0 l 857 1047 l 857 1047 m 1174 229 l 1068 138 l 1290 138 l 1290 0 l 743 0 l 1022 279 q 1076 348 1051 307 q 1100 432 1100 389 q 1100 435 1100 433 q 1100 439 1100 438 q 1076 490 1097 467 q 1022 513 1054 513 q 967 490 986 513 q 947 436 947 468 q 948 424 947 431 q 950 410 949 417 l 756 411 q 830 585 760 518 q 1021 651 900 651 q 1206 591 1128 651 q 1283 428 1283 531 q 1263 331 1283 371 q 1203 254 1242 290 q 1189 241 1196 247 q 1174 228 1182 235 l 1174 229 m 236 910 l 139 910 l 139 1047 l 413 1047 l 413 419 l 236 419 l 236 910 l 236 910 z "},"¼":{"ha":476,"x_min":0,"x_max":0,"o":""},"¾":{"ha":476,"x_min":0,"x_max":0,"o":""},"₣":{"ha":476,"x_min":0,"x_max":0,"o":""},"Ğ":{"ha":476,"x_min":0,"x_max":0,"o":""},"ğ":{"ha":476,"x_min":0,"x_max":0,"o":""},"İ":{"ha":476,"x_min":0,"x_max":0,"o":""},"Ş":{"ha":476,"x_min":0,"x_max":0,"o":""},"ş":{"ha":476,"x_min":0,"x_max":0,"o":""},"Ć":{"ha":476,"x_min":0,"x_max":0,"o":""},"ć":{"ha":476,"x_min":0,"x_max":0,"o":""},"Č":{"ha":476,"x_min":0,"x_max":0,"o":""},"č":{"ha":476,"x_min":0,"x_max":0,"o":""},"đ":{"ha":476,"x_min":0,"x_max":0,"o":""},"→":{"ha":694,"x_min":0,"x_max":0,"o":""},"⌂":{"ha":476,"x_min":0,"x_max":0,"o":""},"–":{"ha":694,"x_min":0,"x_max":694,"o":"m 0 550 l 694 550 l 694 342 l 0 342 l 0 550 l 0 550 z "},"­":{"ha":694,"x_min":0,"x_max":0,"o":""},"■":{"ha":694,"x_min":0,"x_max":0,"o":""},"•":{"ha":953,"x_min":215,"x_max":739,"o":"m 478 786 q 665 708 590 785 q 739 522 739 631 q 665 338 739 415 q 478 261 590 261 q 290 338 365 261 q 215 522 215 415 q 290 708 215 631 q 478 785 365 785 l 478 786 z "},"¯":{"ha":476,"x_min":0,"x_max":0,"o":""},"°":{"ha":476,"x_min":0,"x_max":0,"o":""},"·":{"ha":476,"x_min":0,"x_max":0,"o":""},"‗":{"ha":476,"x_min":0,"x_max":0,"o":""},"‼":{"ha":476,"x_min":0,"x_max":0,"o":""},"ⁿ":{"ha":476,"x_min":0,"x_max":0,"o":""},"₧":{"ha":476,"x_min":0,"x_max":0,"o":""},"Γ":{"ha":476,"x_min":0,"x_max":0,"o":""},"Θ":{"ha":476,"x_min":0,"x_max":0,"o":""},"Φ":{"ha":476,"x_min":0,"x_max":0,"o":""},"α":{"ha":476,"x_min":0,"x_max":0,"o":""},"δ":{"ha":476,"x_min":0,"x_max":0,"o":""},"ε":{"ha":476,"x_min":0,"x_max":0,"o":""},"σ":{"ha":476,"x_min":0,"x_max":0,"o":""},"τ":{"ha":476,"x_min":0,"x_max":0,"o":""},"φ":{"ha":476,"x_min":0,"x_max":0,"o":""},"←":{"ha":476,"x_min":0,"x_max":0,"o":""},"↑":{"ha":476,"x_min":0,"x_max":0,"o":""},"↓":{"ha":476,"x_min":0,"x_max":0,"o":""},"↔":{"ha":476,"x_min":0,"x_max":0,"o":""},"↕":{"ha":476,"x_min":0,"x_max":0,"o":""},"↨":{"ha":476,"x_min":0,"x_max":0,"o":""},"∟":{"ha":476,"x_min":0,"x_max":0,"o":""},"∩":{"ha":476,"x_min":0,"x_max":0,"o":""},"≡":{"ha":476,"x_min":0,"x_max":0,"o":""},"⌐":{"ha":476,"x_min":0,"x_max":0,"o":""},"⌠":{"ha":476,"x_min":0,"x_max":0,"o":""},"⌡":{"ha":476,"x_min":0,"x_max":0,"o":""},"▬":{"ha":476,"x_min":0,"x_max":0,"o":""},"○":{"ha":476,"x_min":0,"x_max":0,"o":""},"▲":{"ha":476,"x_min":0,"x_max":0,"o":""},"►":{"ha":476,"x_min":0,"x_max":0,"o":""},"▼":{"ha":476,"x_min":0,"x_max":0,"o":""},"◄":{"ha":476,"x_min":0,"x_max":0,"o":""},"◘":{"ha":476,"x_min":0,"x_max":0,"o":""},"◙":{"ha":476,"x_min":0,"x_max":0,"o":""},"Ř":{"ha":476,"x_min":0,"x_max":0,"o":""},"▀":{"ha":476,"x_min":0,"x_max":0,"o":""},"▄":{"ha":476,"x_min":0,"x_max":0,"o":""},"█":{"ha":476,"x_min":0,"x_max":0,"o":""},"▌":{"ha":476,"x_min":0,"x_max":0,"o":""},"▐":{"ha":476,"x_min":0,"x_max":0,"o":""},"░":{"ha":476,"x_min":0,"x_max":0,"o":""},"▒":{"ha":476,"x_min":0,"x_max":0,"o":""},"▓":{"ha":476,"x_min":0,"x_max":0,"o":""},"☺":{"ha":476,"x_min":0,"x_max":0,"o":""},"☻":{"ha":476,"x_min":0,"x_max":0,"o":""},"☼":{"ha":476,"x_min":0,"x_max":0,"o":""},"♀":{"ha":476,"x_min":0,"x_max":0,"o":""},"♂":{"ha":476,"x_min":0,"x_max":0,"o":""},"♠":{"ha":476,"x_min":0,"x_max":0,"o":""},"♣":{"ha":476,"x_min":0,"x_max":0,"o":""},"♥":{"ha":476,"x_min":0,"x_max":0,"o":""},"♦":{"ha":476,"x_min":0,"x_max":0,"o":""},"♪":{"ha":476,"x_min":0,"x_max":0,"o":""},"♫":{"ha":476,"x_min":0,"x_max":0,"o":""},"Ă":{"ha":476,"x_min":0,"x_max":0,"o":""},"ă":{"ha":476,"x_min":0,"x_max":0,"o":""},"Ą":{"ha":476,"x_min":0,"x_max":0,"o":""},"ą":{"ha":476,"x_min":0,"x_max":0,"o":""},"Ď":{"ha":476,"x_min":0,"x_max":0,"o":""},"ď":{"ha":476,"x_min":0,"x_max":0,"o":""},"Đ":{"ha":476,"x_min":0,"x_max":0,"o":""},"Ę":{"ha":476,"x_min":0,"x_max":0,"o":""},"ę":{"ha":476,"x_min":0,"x_max":0,"o":""},"Ě":{"ha":476,"x_min":0,"x_max":0,"o":""},"ě":{"ha":476,"x_min":0,"x_max":0,"o":""},"Ĺ":{"ha":476,"x_min":0,"x_max":0,"o":""},"ĺ":{"ha":476,"x_min":0,"x_max":0,"o":""},"Ľ":{"ha":476,"x_min":0,"x_max":0,"o":""},"ľ":{"ha":476,"x_min":0,"x_max":0,"o":""},"Ń":{"ha":476,"x_min":0,"x_max":0,"o":""},"ń":{"ha":476,"x_min":0,"x_max":0,"o":""},"Ň":{"ha":476,"x_min":0,"x_max":0,"o":""},"ň":{"ha":476,"x_min":0,"x_max":0,"o":""},"Ő":{"ha":476,"x_min":0,"x_max":0,"o":""},"ő":{"ha":476,"x_min":0,"x_max":0,"o":""},"Ŕ":{"ha":476,"x_min":0,"x_max":0,"o":""},"ŕ":{"ha":476,"x_min":0,"x_max":0,"o":""},"ř":{"ha":476,"x_min":0,"x_max":0,"o":""},"Ś":{"ha":476,"x_min":0,"x_max":0,"o":""},"ś":{"ha":476,"x_min":0,"x_max":0,"o":""},"Ţ":{"ha":476,"x_min":0,"x_max":0,"o":""},"ţ":{"ha":476,"x_min":0,"x_max":0,"o":""},"Ť":{"ha":476,"x_min":0,"x_max":0,"o":""},"ť":{"ha":476,"x_min":0,"x_max":0,"o":""},"Ů":{"ha":476,"x_min":0,"x_max":0,"o":""},"ů":{"ha":476,"x_min":0,"x_max":0,"o":""},"ű":{"ha":476,"x_min":0,"x_max":0,"o":""},"Ű":{"ha":476,"x_min":0,"x_max":0,"o":""},"Ź":{"ha":476,"x_min":0,"x_max":0,"o":""},"ź":{"ha":476,"x_min":0,"x_max":0,"o":""},"Ż":{"ha":476,"x_min":0,"x_max":0,"o":""},"ż":{"ha":476,"x_min":0,"x_max":0,"o":""},"Ŀ":{"ha":476,"x_min":0,"x_max":0,"o":""},"ŀ":{"ha":476,"x_min":0,"x_max":0,"o":""},"─":{"ha":476,"x_min":0,"x_max":0,"o":""},"│":{"ha":476,"x_min":0,"x_max":0,"o":""},"┌":{"ha":476,"x_min":0,"x_max":0,"o":""},"┐":{"ha":476,"x_min":0,"x_max":0,"o":""},"└":{"ha":476,"x_min":0,"x_max":0,"o":""},"┘":{"ha":476,"x_min":0,"x_max":0,"o":""},"├":{"ha":476,"x_min":0,"x_max":0,"o":""},"┤":{"ha":476,"x_min":0,"x_max":0,"o":""},"┬":{"ha":476,"x_min":0,"x_max":0,"o":""},"┴":{"ha":476,"x_min":0,"x_max":0,"o":""},"┼":{"ha":476,"x_min":0,"x_max":0,"o":""},"═":{"ha":476,"x_min":0,"x_max":0,"o":""},"║":{"ha":476,"x_min":0,"x_max":0,"o":""},"╒":{"ha":476,"x_min":0,"x_max":0,"o":""},"╓":{"ha":476,"x_min":0,"x_max":0,"o":""},"╔":{"ha":476,"x_min":0,"x_max":0,"o":""},"╕":{"ha":476,"x_min":0,"x_max":0,"o":""},"╖":{"ha":476,"x_min":0,"x_max":0,"o":""},"╗":{"ha":476,"x_min":0,"x_max":0,"o":""},"╘":{"ha":476,"x_min":0,"x_max":0,"o":""},"╙":{"ha":476,"x_min":0,"x_max":0,"o":""},"╚":{"ha":476,"x_min":0,"x_max":0,"o":""},"╛":{"ha":476,"x_min":0,"x_max":0,"o":""},"╜":{"ha":476,"x_min":0,"x_max":0,"o":""},"╝":{"ha":476,"x_min":0,"x_max":0,"o":""},"╞":{"ha":476,"x_min":0,"x_max":0,"o":""},"╟":{"ha":476,"x_min":0,"x_max":0,"o":""},"╠":{"ha":476,"x_min":0,"x_max":0,"o":""},"╡":{"ha":476,"x_min":0,"x_max":0,"o":""},"╢":{"ha":476,"x_min":0,"x_max":0,"o":""},"╣":{"ha":476,"x_min":0,"x_max":0,"o":""},"╤":{"ha":476,"x_min":0,"x_max":0,"o":""},"╥":{"ha":476,"x_min":0,"x_max":0,"o":""},"╦":{"ha":476,"x_min":0,"x_max":0,"o":""},"╧":{"ha":476,"x_min":0,"x_max":0,"o":""},"╨":{"ha":476,"x_min":0,"x_max":0,"o":""},"╩":{"ha":476,"x_min":0,"x_max":0,"o":""},"╪":{"ha":476,"x_min":0,"x_max":0,"o":""},"╫":{"ha":476,"x_min":0,"x_max":0,"o":""},"╬":{"ha":476,"x_min":0,"x_max":0,"o":""}}}
